<?xml version="1.0" encoding="UTF-8" standalone="no"?>
<svg
   xmlns:i="&amp;ns_ai;"
   xmlns:dc="http://purl.org/dc/elements/1.1/"
   xmlns:cc="http://creativecommons.org/ns#"
   xmlns:rdf="http://www.w3.org/1999/02/22-rdf-syntax-ns#"
   xmlns:svg="http://www.w3.org/2000/svg"
   xmlns="http://www.w3.org/2000/svg"
   xmlns:xlink="http://www.w3.org/1999/xlink"
   xmlns:sodipodi="http://sodipodi.sourceforge.net/DTD/sodipodi-0.dtd"
   xmlns:inkscape="http://www.inkscape.org/namespaces/inkscape"
   version="1.0"
   id="svg2"
   x="0px"
   y="0px"
   viewBox="0 0 726.975 1041.443"
   enable-background="new 0 0 726.975 1041.443"
   xml:space="preserve"
   sodipodi:docname="serbia.svg"
   inkscape:version="0.92.3 (2405546, 2018-03-11)"><metadata
   id="metadata4700"><rdf:RDF><cc:Work
       rdf:about=""><dc:format>image/svg+xml</dc:format><dc:type
         rdf:resource="http://purl.org/dc/dcmitype/StillImage" /></cc:Work></rdf:RDF></metadata><defs
   id="defs4698" /><sodipodi:namedview
   pagecolor="#ffffff"
   bordercolor="#666666"
   borderopacity="1"
   objecttolerance="10"
   gridtolerance="10"
   guidetolerance="10" />
<switch
   id="switch4693">
	<g
   i:extraneous="self"
   id="g4691">
		<g
   id="Land">
			<path
   style="fill:#ffe0e0;fill-opacity:0"
   d="M 1.326,1.317 H 725.85701 V 1038.279 H 1.326 Z"
   id="rect8" />
			<path
   id="path10"
   d="M306.207,998.346c-0.003-3.17-2.127-6.025-3.039-8.978l1.328,0.032     c1.512-1.135,1.081-3.808,3.777-2.749c0.891-1.337,0.291-0.829,1.726-1.92c1.004-0.764,1.753-7.5,1.019-8.71     c-0.872-1.438-1.8-1.458-2.361-3.451c-0.637-2.262,0.014-4.714-1.953-6.676c-0.075-8.448-2.162-5.275-4.221-8.646     c-1.038-1.699-1.576-3.564-2.484-5.298c-0.186-0.354,1.733-2.327,1.685-3.404c-2.334-3.239,0.515-3.023,0.426-5.325     c-0.077-2.004-3.119-3.666-1.547-5.727c-0.574-1.062-1.79-1.783-2.398-2.836c0.393-0.512,0.418-1.151,0.033-1.665     c-1.969-2.624-1.962-8.167-3.198-10.054c-0.747-1.139-1.154-1.392-1.521-2.828c-4.208-1.395-1.154-3.098-3.816-4.477     c-0.855-2.063-1.928-0.78-2.685-3.83c-1.133-0.869-2.107-1.824-3.191-2.725c-0.404-0.336-1.586-0.332-2.234-0.922l-2.314-0.201     l-0.524-0.999c-0.987-0.199-2.499-0.062-3.257-0.833c-0.6-0.61-0.802-3.501-1.888-3.105l-0.458-0.104     c-0.504-0.706-4.593-1.94-5.551-2.15c0.203-0.288,0.159-1.248,0.184-1.607c-0.501-0.535-0.834-1.204-1.344-1.727     c-0.873-0.213-0.844-0.637-1.2-0.749c-2.687-0.851-4.04,4.074-6.192,2.06c-0.433-0.405-0.789-0.309-0.977-0.984     c-1.488-0.87-5.095,2.053-6.036,0.033c-0.535-0.308-1.187,0.008-1.639-0.491c0.36-1.853-0.198-4.097-1.998-4.985     c0.595-0.514,1.289-0.894,1.894-1.395c-0.03-1.146,0.023-2.236,0.196-3.369c-0.688-1.158-0.431-1.732-0.838-2.767     c-0.778-0.38-5.396-4.208-5.356-4.644c0.53-0.393,0.533-1.085,0.706-1.654c0.303-0.997,2.482-0.469,2.188-2.742     c-0.114-0.877-0.98-2.94-1.502-3.598c-1.748-0.158-1.276-1.883-2.036-2.473c-2.171-1.687-2.793-0.063-1.165-3.062     c0.38-0.7-1.709-2.171-2.111-2.626c-0.75-0.848-0.311-2.084-0.617-3.076c-1.087-0.918-1.609-1.482-2.235-2.785     c0.296-0.445,0.257-1.08,0.095-1.568c-2.24-0.655-8.354-4.87-10.831-5.954c-0.538-1.369-0.762-1.94-1.795-3.074     c0.06-1.196-0.733-1.481-1.56-2.097c-0.646-1.441,1.281-3.969,1.227-4.879c-0.276-4.664-4.641-7.635,0.072-11.715     c1.063-0.92,0.16-2.139,3.49-4.433l0.334-1.431c-0.408-0.242-0.944-0.271-1.407-0.227c-0.579-0.139-1.57-0.759-1.755-1.377     c-3.735-0.506-5.468-3.684-6.91-4.043c-1.41-0.353-5.29,0.08-7.567-0.73l0.165-1.333c-3.172,0.169-2.016-1.515-2.705-3.36     l-1.26-0.22c0.168-1.051-0.017-1.459-0.668-2.341l2.541-0.787c-0.463-1.523,0.017-1.789,0.24-3.211     c-0.55-0.33-0.825-0.933-1.324-1.32c0.589-3.359,3.322-1.567,5.421-5.828l0.908,0.197l0.964-0.498     c1.445,0.74,3.292-2.399,6.144-3.291c0.88,0.414,1.496,1.257,2.431,1.668c0.892,0.393,3.239,0.797,3.833,1.205     c0.535,0.369,0.64,1.095,1.183,1.437c1.342,0.844,0.755-0.543,2.059-0.289c1.537,0.3,2.66,1.622,4.041,2.271     c1.361-0.055,2.736-0.34,4.073-0.579l1.764-0.243c0.946,0.157,1.283,0.59,2.365,0.475c0.124-0.73,0.732-4.025,1.336-4.264     c3.303,2.469,1.32-0.848,0.8-2.92c2.319,0.463,3.383-1.146,4.457-2.896l-0.132-1.228c0.781-0.501,1.846-2.253,2.179-2.387     c1.957-0.784,3.958-2.399,6.034-2.571c0.107,0.695,1.657,1.599,2.212,1.83c0.463-0.575,1.649-1.254,2.278-1.621l-0.143-0.742     l1.84-1.518c1.058-0.14,1.575-0.146,2.245,0.752c0.58-0.102,1.509-0.135,2.059,0.14l0.021-0.464     c-0.618-0.321-0.396-1.149-0.525-1.703c-1.697-1.121-0.776-1.61-0.997-3.115c-0.149-1.023-1.036-2.348-0.897-3.35     c0.268-1.932,0.954-4.064,1.16-5.967c0.211-1.937-1.788-4.03-0.317-5.943c-0.766,0.082-1.914,0.613-2.617,0.268     c-0.02-0.394-0.17-0.822-0.492-1.066c-3.144-0.092-2.026,3.971-6.57-0.464c-1.926,0.103-2.691-1.01-4.228-1.831     c-1.8-0.962-4.023-0.701-5.771-1.795c-1.105-0.691-1.455-2.365-2.508-2.781c-0.992-0.392-1.529,0.688-3.636-1.019     c-1.679-1.359-1.806-2.31-4.216-2.561l-0.23-0.776l-0.668,0.023c0,0-2.103-0.309-3.11,0.254     c-0.635,1.227-1.908,1.647-2.267,2.642c-0.912,0.005-1.199-2.894-3.712-1.772c-0.593-0.121-0.505,0.088-0.657-0.648l-1.063-0.418     c0.554-2.4-1.17-2.855-2.649-4.264c-1.237-0.043-5.021,2.082-5.936,1.656c-0.231-1.41,5.801-5.377,6.089-6.221l-0.537-0.996     c-0.967-0.226-2.011-0.063-2.957-0.383c-0.884-0.299-1.512-1.179-2.508-1.159c-6.517-4.398-7.548-3.829-10.961-11.528     c-0.388-0.873-0.342-1.869-0.756-2.734c-0.931,0.317-1.543,1.212-2.508,1.472c-1.469,0.396-10.004-1.653-11.914-2.213     c-1.028-0.302-1.646-1.337-2.705-1.554c-1.932-0.395-2.867,1.324-3.712,0.997c-1.197-0.464-0.463-3.386-4.929-5.41l-0.635-1.345     c-0.818-0.465-3.048-1.883-3.241-2.804c0.298-0.247,0.608-0.798,0.635-1.193c0.387-5.808-2.623-2.759-5.377-3.777     c-1.223-0.452-1.692-1.544-3.143-1.668c-4.635-0.397-12.194,1.306-16.108-1.472c-1.147-0.814-0.733-3.469-0.985-4.727     c-0.254-1.264-6.723-10.66-7.523-11.135c-2.801-1.657-2.761,1.943-8.914-3.764c-4.076-3.781-1.162-9.309-2.277-13.475     c-1.436-1.129-3.336-1.354-4.228-2.225c-0.529-0.518-0.653-1.971-1.456-2.781c-0.97-0.979-1.529-0.104-2.596-2.085     c0.144-0.733,0.5-1.536,0.384-2.294c-0.15-0.973-1.234-1.779-1.413-2.896c-0.146-0.914,0.107-2.193-0.701-2.861     c-1.75-1.447-4.29-1.135-6.329-1.843c-1.646-0.571-3.61-4.03-5.268-5.133c-2.678-1.78-5.657-3.483-8.41-5.201     c-0.307-0.192-1.366,0.359-2.059,0.011c-1.355-0.682-2.693-1.747-3.975-2.583l-0.592,0.104c-1.676-1.619-4.101-2.154-5.738-3.813     c-0.739-0.748-1.342-1.966-2.19-2.549l0.569-4.287c0.202-1.537-2.3-1.664-0.317-5.746c5.163,0.574,1.028-6.354,3.155-9.575     c-0.146-0.616-0.236-5.093,0.518-5.2l0.866,0.498c1.18-2.561,2.529-0.979,3.391-2.192c1.211,0.981,1.889,0.862,1.742-0.797     c0.667-0.021,1.098,2.216,1.733,2.62c0.729,0.463,5.495,0.307,5.999-0.27c0.463-0.529,2.776-3.855,3.475-3.217     c0.504-0.268,0.56-0.93,0.951-1.306c0.299,0.374,0.363,0.921,0.32,1.384c0.499,0.587,1.447,0.449,1.931,1.017     c-0.354,4.023,1.597,1.107,3.079,2.96c-0.332,0.464-1.409,3.333,0.077,1.76l0.632,0.169l0.15,3.501     c-2.032,1.639-0.1,3.031,0.98,4.965c0.722-0.195,1.706-1.549,2.507-1.965c0.852-2.059,0.512-2.079,2.828-3.18     c-0.131-0.848,0.504-2.131,1.338-2.424c0.764-2.344,6.869,2.786,7.55,1.497c0.966-1.825,0.654-1.272,2.535-1.834     c1.272-3.021-0.651-1.359-2.205-3.011c-0.286-0.305-1.208-3.011-1.528-1.41c-0.561-0.918,0.524-3.359,0.99-4.24l-0.132-0.338     l-1-0.43c-0.501-0.716,0.337-1.314-0.839-2.902c0.834-1.097,1.877-2.82,2.12-0.418c1.533,0.218,1.069-1.008,1.245-1.986     c0.454-2.535,1.31-5.021,1.142-7.637c-0.146-2.277-1.872-4.59-1.84-7.155c0.009-0.64,0.639-2.14,0.378-2.635     c-0.796-1.509-2.608-2.543-4.126-3.265c-0.2-1.414-0.245-3.366-1.763-3.93c-1.724-3.076-0.779-5.31-6.239-5.77     c0.012-0.864,0.134-2.818-0.954-3.12l-0.624-1.101c-0.322-0.463-0.796,0.555-1.456,0.42c-0.887-0.18-1.645-0.859-2.694-1.08     c-1.089-2.813-1.69-3.346-3.809-5.98c-0.172-0.213,0.524-1.613,0.406-2.16c-1.227-0.59-3.402-1.761-3.517-3.25     c-0.867-0.813-2.744-3.45-3.61-3.699l0.737-1.551l-3.498-2.68c0.263-0.79,0.862-1.298,0.397-2.16     c-0.564-1.049-1.862-1.439-2.495-2.43c-0.661-1.034-0.311-2.428-1.05-3.42c-0.394-0.529-1.428-0.951-1.503-1.65     c-1.005-0.785-1.589-2-2.192-3.091c0.548-1.181-2.052-1.835-2.694-2.29l-0.388-0.93l0.441-0.654     c0.926-1.467-6.279-11.22-2.167-12.768c1.854-0.697,2.856,3.037,5.323,3.648c1.628,0.404,3.866-0.213,5.309,0.385     c1.43,0.593,3.782,2.986,4.592,3.213c0.799,0.223,2.645-0.118,3.121,0.177c0.475,0.294,2.098,4.37,5.43,4.858     c1.416,0.208,1.71-1.581,2.571-1.704c0.782,0.607,2.19,1.757,3.104,2.013c0.826,0.232,15.226,0.795,16.656,0.695     c0.469-0.033,1.535-3.513,2.179-4.15c1.162-1.154,2.842-1.918,4.366-2.473c0.438-1.112-1.053-2.597-0.598-3.041     c0.934-0.911,2.68-0.607,3.828-1.072c0.64-0.258,0.672-1.04,1.253-1.375c1.263-0.728,3.673-0.121,4.138-1.948     c0.39-1.528-1.495-2.611-1.177-4.021c0.17-0.75,0.814-1.484,1.13-2.205l0.204-0.693c0.387-1.963-1.761,0.084-2.429-0.412     c-0.512-0.38-0.112-2.672-0.266-3.354c-0.276-1.221-2.836-1.865-3.65-0.805c-0.651,0.848,0.664,4.807-1.063,4.861     c-1.548,0.05-2.021-3.912-3.008-4.971c-1.816-1.947-4.907-1.161-6.996-2.591c-3.456-2.366-2.113-5.622-3.266-7.846     c-0.396-0.766-3.15,0.856-3.774-1.368c-0.668-2.377,3.181-3.423,1.968-5.321c-1.282-2.009-3.923-0.349-4.573,1.338     c-0.592,1.534-0.427,2.444-2.278,1.378c-5.994-3.451-3.073-8.879-6.669-8.439l-2.307-1.714c-0.702-0.505-3.886-0.462-3.997-1.174     l-0.532-3.963c-0.049-0.363,0.825-0.804,0.552-1.59c-0.797-2.288-4.364-1.268-1.626-5.171c-1.375-2.175-0.437-2.119-2.929-3.993     c-1.166-0.877,0.205-4.252-1.044-5.054c-1.811-1.162-2.935,0.689-4.681,0.344c-0.913-0.182-1.895-1.596-2.66-1.482     c-1.207,1.371-4.257,3.515-6.177,3.369c-4.792-0.365-2.483-5.272-4.462-6.295c-3.715-1.92-3.799,3.795-7.483,0.624     c-1.355-1.168-1.59-3.063-2.823-4.31c-0.931-0.94-2.722-1.35-3.006-2.816c-0.283-1.47,1.353-3.396,0.697-4.633     c-0.549-1.033-2.724,0.153-3.263-1.372l-0.83-2.463c0.167-1.181,2.988-1.606,0.592-2.926c-2.627,2.46-0.87-5.701-0.648-6.127     c1.039-1.999,5.085-2.502,5.942-3.814c0.275-0.42,0.379-5.091,0.42-5.944c0.14-2.883-0.22-4.816-1.316-7.55     c-0.331-0.823-1.008-1.395-1.202-2.29c-0.387-1.78,1.262-3.35-1.641-3.825c-1.006-0.938,0.386-1.938,0.805-2.748     c0.502-0.969,0.02-2.53,0.909-3.241c1.265-1.011,1.78,0.751,2.844,0.901c0.873,0.124,2.316-0.263,3.245-0.323     c1.025-0.685-0.035-2.175,0.986-3.09c1.381-1.234,4.589-3.555,2.757-5.692c-0.481-0.562-1.709-0.171-1.991-0.841     c-0.386-0.915,2.124-4.203,2.854-4.811c1.556-1.298,3.971-0.593,4.446-1.769c0.417-1.033-1.829-4.489-0.163-4.45     c4.923,0.118,1.492-0.9,2.454-3.604c0.313-0.88,1.685,0.126,1.333-2.273c0.546-0.893,1.209-1.847,0.796-2.921     c0.641-2.163,1.984-2.567,3.566-3.794c0.79-0.612-2.094-2.432-0.565-3.732c0.961-0.819,4.328,1.569,4.171-0.965     c-0.179-2.897,1.288-1.714,2.158-3.529c-0.063-0.146,1.943-4.583,2.387-4.88c0.228-0.656-0.96-1.163-0.432-1.938     c0.328-0.479,1.752,0.289,2.359-0.143c1.288-0.916-0.847-1.633-0.997-2.506l1.034-1.319c-1.048-0.586-2.437-1.778-2.153-3.123     c0.34-1.616,1.82,0.358,2.49-0.702c0.567-0.898-0.775-1.699-0.577-2.411c0.217-0.777,1.416-0.579,1.731-1.291     c0.133-0.302-0.279-5.098-0.279-6.492c0-0.726,1.346-1.234,1.087-1.779c-0.304-0.639-1.812-0.369-1.327-1.526     c0.31-0.738,2.374-0.936,2.83-2.163c-0.275-0.849,1.252-0.639,1.699-1.652c0.383-0.867-1.224-1.994-1.51-2.757     c-0.512-1.363,1.361-1.685,1.279-2.951c-0.062-0.945-1.442-1.489-1.174-1.688l0.317-0.905c-3.116-2.129-1.939-0.093-3.365-0.742     c-5.382-2.451-4.552-6.065-11.376-3.419c-1.224-0.477-2.109-1.864-3.481-1.963c-2.456-0.179-4.061,4.768-6.731,3.824     c-1.505-0.532-0.515-4.529-3.914-5.555c-3.352-1.01-3.766,1.945-5.862,3.573c-0.978,0.76-2.166,0.877-3.288,1.296     c-1.005,0.376-0.994,2.832-2.458,3.234c-1.487,0.409-3.134,0.362-4.426,1.326c-1.899,1.416-0.907,3.556-4.329,4.305     c-2.065,0.452-4.995,1.029-7.088,1.143c-0.513-3.487-2.757-5.827-4.116-8.906c-0.342-0.773,0.137-1.648-0.344-2.409     c5.8-6.343,9.293,2.811,13.223,2.077c4.039-0.754,0.518-3.809,4.998-7.207c3.99-3.026,3.768-1.671,5.957-2.66     c0.396-0.179,0.845-1.334,0.515-1.452c0.734-0.452,1.484-0.906,2.172-1.431l-0.295-1.028l-1.201,0.031l0.038-4.103     c-2.113-2.191-2.114-0.574-4.829,0.161c-0.738,1.843-2.479,0.726-4.03,0.797c-1.155-1.313-3.266-1.859-4.61-3.095l0.165-0.665     c3.706-2.809,2.328-0.636,6.078-4.998c-0.005-1.297-1.383-2.813-0.52-4c-0.203-0.299-0.221-0.796-0.13-1.133     c-0.573-0.01-0.658-0.624-0.65-1.055c0.026-1.407,3.729-1.608,1.17-3.915l-0.876-0.695c-0.547-1.717,4.051-5.96-0.617-7.69     c0.444-1.958-1.285-3.353-1.138-4.589c-1.809,1.6-1.198-2.431-1.247-2.604c-0.551-1.961,1.32-2.653,1.444-4.772     c3.276,0.913,5.528,2.801,8.907,3.537c3.103-3.158,7.19-6.766,8.507-11.118c-1.421-1.043-2.964-1.774-4.586-2.445l0.85-2.298     l0.775-0.57l0.474,0.484l1.014-0.368c0.954,0.095,7.741,5.155,8.295,5.161c1.506,0.017,2.662-0.008,3.979,0.886l1.571-0.092     c1.267,0.905,1.69,1.343,3.363,0.502c0.225,0.201,0.517,0.311,0.411-0.098c-0.223-0.867-0.779-1.674-1.215-2.447l-1.244-2.212     c2.775,1.153,0.164-1.859,0.066-2.629c-0.041-0.323,0.027-0.885,0.556-0.658c0.596,2.026,4.509-0.405,5.647,0.301     c0.576,0.356,0.233,1.241,0.233,1.768c0,0.656,3.165,5.231,3.568,5.851c0.499-0.545,1.002-1.112,1.575-1.581l2.802,2.731     c0.818,0.164,1.582-0.103,2.383-0.226c2.748-0.425,7.021,0.7,9.218,0.091l0.179-1.992l1.081-1.162     c-1.301-3.828-2.858-7.277-4.37-11.029c-1.77-0.155-3.544,0.121-5.312,0.174c-12.117,0.367-19.968-1.171-30.482-7.057     c-3.856-2.158-11.687-4.582-14.442-7.531c-2.388-2.554-1.111-8.045-3.992-9.675c-2.976-1.684-6.377-0.322-9.519-1.157     c-1.908-0.508-3.065-2.627-4.596-3.75c-1.493-1.095-3.364-1.939-4.206-3.697c-0.433-0.904-0.373-1.973,0.117-2.844     c2.488-4.416,9.997-0.182,9.323-5.677c-0.696-5.678-8.028-2.36-6.244-10.985c0.485-2.346-0.161-5.112,1.651-7.022     c1.298-1.368,3.729,1.313,4.947,1.81c3.528,1.44,10.166,0.346,11.108-4.045c1.438-6.696-9.257-5.964-10.495-6.659     c-1.813-1.019-0.194-4.197-2.434-4.977c-3.704-1.289-2.972,1.34-4.868,3.475c-2.489,2.802-7.815,1.698-10.233-0.356     c2.163-3.132,2.334-4.457-1.251-5.739l-0.219,0.483c-8.166-2.159-0.831-3.73-0.457-7.566c3.747,0.643,0.228-2.452-0.854-2.165     c0.229-1.477,1.469-2.385,2.404-3.427c1.451,0.712,3.408,1.637,4.569-0.063c-0.376-0.711-2.403-1.912-2.403-1.912     c-0.938-0.588-1.07-1.186-0.572-2.177c2.317-1.268,8.969,0.174,5.956-4.767c-0.575-0.943-0.463-1.016-1.241-1.838     c-2.425-2.562-6.466-1.744-7.478-6.382l2.206-0.42c1.461,0.853,3.897,2.162,5.481,1.863c1.968-0.372,2.947-4.457,1.227-4.929     c-1.373-0.376-1.408,0.445-2.337,0.92c-0.537,0.274-1.938-0.115-2.587-0.103c-1.836,0.036-4.192-1.07-5.969-0.652     c-0.523-0.997-0.65-1.835-0.797-2.942c4.146-0.984,9.104,1.819,11.785-1.057c0.857-0.92,1.024-1.364,1.001-2.636l-0.566-0.777     c-1.513-0.282-2.957,0.11-4.21,0.979c-0.503-0.538-0.752-1.225-1.207-1.793c-1.167,0.527-2.621,1.358-3.867,1.586     c-2.723,0.498-2.233-1.156-4.25-1.897c-4.342-1.596-10.338-3.552-2.762-7.481c0.472-0.245,2.919,1.878,3.989,1.813     c1.903-0.116,3.713-8.535,2.965-9.778c-2.676-4.446-5.782,0.284-7.441,2.043c-0.425,0.45-2.739,2.018-3.211,1.243     c-0.776-1.273,1.066-5.272,1.26-6.827c0.222-1.787-0.016-3.81-0.105-5.614c1.831,0.649,5.711,1.428,6.468-1.06     c0.949-3.123-5.212-2.922-4.764-6.528c0.356-2.874,5.781-1.176,5.039-5.136c-0.406-0.428-1.276-0.152-1.798-0.503     c0.776-1.05,1.574-2.087,2.481-3.027c2.859,0.351,6.372,1.141,9.122,1.984c1.296-0.684,2.729-1.035,4.109-1.5     c0.264,0.695,0.733,1.282,1.146,1.894l2.252,0.12c-0.653-1.706-1.433-3.411-1.774-5.215l1.26-2.785     c1.137-2.288,11.774-0.943,11.901-1.123c-0.445-2.666-1.478-5.351-2.132-7.986c0.628-1.791,4.936-6.655,6.213-9.181     c1.515,0.624,3.084,0.596,4.705,0.687c1.873,1.872,1.457,6.526,2.042,8.725c0.297,1.116,3.145-0.206,3.031,0.865l6.346,0.331     c-0.272-0.354-0.538-0.831-0.877-1.125c1.578-0.479,3.742-0.298,5.366-0.26l0.641,0.903l7.741-0.376l1.877,1.994l1.008-0.84     l-3.252-4.922c4.277-2.986,8.649-5.773,13.009-8.636c0.599,0.082,2.356,2.981,2.748,3.621l1.332-0.78     c0.672-0.39,4.296-1.415,4.356-1.475c0.594-0.585,0.801-1.472,1.28-2.141c1.769-2.464,4.515-4.184,6.952-5.892     c-0.021-0.667-0.055-2.338-0.336-2.936c0.646-0.981,2.217-0.918,2.533-2.323l0.799,0.248c2.306-1.057,4.803-2.21,6.675-3.97     l-3.123-2.874l-0.901-1.856l2.368-2.242l1.615,0.909c1.77-1.372,3.575-2.688,5.318-4.096l0.081-1.805     c3.755-2.068,5.135,1.089,7.677,0.334l3.79,0.747l4.759-4.504c0.235,0.231,2.04,1.815,1.412,0.982     c0.648,0.517,3.346,2.034,2.673,0.675c0.564-0.53,1.258-0.949,1.905-1.37c1.073,1.252,3.618,4.253,4.89,4.561l0.987-0.313     c1.782,1.261,2.288,3.681,3.998,5.015c1.25,0.976,6.495,1.004,9.532,4.233c1.926-1.829,4.006-2.55,5.538-4.885     c3.974,0.306,10.164-2.945,13.154-5.895l4.034,0.017c1.021,0.004,9.055-0.238,9.168-0.183c1.303,0.646,1.613,2.284,1.728,3.593     c0.505,5.763,2.039,2.891,4.97,2.875l0.709,0.456l0.107,0.403c1.39-1.182,4.668-9.432,6.895-6.821l-0.369,0.542l0.359,2.015     c0.037,0.178,4.632,3.638,5.1,3.589l-0.02,0.534c0.902,0.687,5.684-2.256,6.735-2.805l0.366-0.682l4.191,3.667l0.421,1.931     c1.327,1.366,2.631,0.215,3.713,2.563c0.817-0.395,1.56-0.924,2.37-1.33c0,0-0.203,1.251,0.766,2.004     c0.479-0.69,1.037,0.555,2.306,0.906c0.374-0.086,2.7-0.529,2.288,0.105l-0.692,0.28c-0.259,0.549-1.191,0.587-1.71,0.593     c-0.535,0.513-0.296,1.115,0.162,1.575c-0.422,1.1,4.648,4.045,5.66,4.366c-0.169,0.706,0.764,2.292,1.312,2.761l-0.221,0.452     c1.818,1.874,3.978,3.546,5.688,5.443l-0.663,0.279l-0.678,1.311c1.129,2.688,2.438,5.304,3.39,8.063l-0.707,0.203l-0.104,1.014     l-0.692,0.094c2.337,3.007,6.047,5.495,9.056,7.815c2.262-0.412,4.519-0.854,6.798-1.158l5.947,3.815     c1.54,4.782,2.722,9.263,5.173,13.705l5.419-1.778l-0.51-1.318l3.625-0.979c0.549,1.914,0.941,3.87,1.529,5.774l-0.51,0.199     l0.283,0.959l-0.15,0.52l0.812,1.698l2.114-0.561c0.246,0.758,0.533,1.503,0.718,2.278l2.02-0.479l7.893,7.871     c-0.631,1.264-1.046,2.618-1.548,3.936l0.66,0.938l0.378-0.14l0.906,3.196c0.987-0.299,1.995-0.521,3.002-0.739     c0.989,2.181,1.578,4.527,2.114,6.853l-0.642,0.14l0.377,1.458l0.662-0.159l0.597,2.352c0.927-0.454,1.624,0.291,2.5,0.066     l0.208-0.4c3.159-1.15,5.578-0.778,8.826-0.621c0.685-2.46,1.224-4.958,1.92-7.413l6.133,2.562     c-0.368,1.986-0.837,3.976-0.938,6.001l-1.299,0.182c-1.445,3.309-0.81,6.956-1.169,10.444l0.217,0.51l-0.964,2.832l1.12,1.173     c-0.384,2.298-0.42,3.299,0.519,5.484c-5.084,4.524-2.12,5.12-6.521,10.266c0.414,2.194,0.771,4.423,0.855,6.657     c1.194-0.375,2.41-0.675,3.616-1.007c0.826,1.479,2.192,2.812,3.17,4.246l-0.35,0.549l2.049,3.227l-0.566,0.345     c0.541,1.133,1.302,2.143,1.989,3.188c-0.211,0.106-0.774,0.319-0.929,0.471c-0.344,0.339-0.691,0.997-0.976,1.403     c-2.755,3.928-4.415,4.105-8.426,6.236c0.365,0.749,0.266,2.717,0.266,2.717l0.048,1.887c7.075,0.367,9.411-1.729,15.657,3.532     c0.846,0.713,1.751,3.633,2.073,3.864c0,0-2.002,1.672-2.398,2.346l0.108,0.881c0.665,0.748,3.749,3.4,4.712,3.073l0.784,0.446     c1.022-0.142,2.057-0.168,3.085-0.229c0.159,0.751,0.414,1.478,0.615,2.218c0.357,0.081,0.763,0.274,1.024,0.536     c-0.172,0.421-0.061,2.868-0.061,2.868l0.181,1.378c0.922,0.126,1.855,0.185,2.784,0.203c0.056,0.945,0.338,1.886,0.41,2.845     c1.655,1.327,3.185,2.396,5.026,3.531c1.228,0.758,0.041,3.513,4.476,3.551l1.064,3.884c2.581-0.401,5.135-0.968,7.661-1.632     l-0.319,4.372c0.984,0.061,2.164-0.715,2.997-1.182c0.768,1.663,1.666,3.239,2.519,4.859l2.589-1.106     c0.764,0.357,1.756-0.815,2.554-0.845l2.713-0.056c0.461-0.584,0.924-1.167,1.473-1.671l-0.745-0.882     c0.728-0.551,1.379-1.234,2.004-1.895c0,0,1.835,0.396,2.271-0.113c0.254,0.418,0.749,0.794,1.205,0.957l-0.035,1.107     c-1.222,0.745,1.149,5.005,1.224,6.436c0.822,1.056,1.999,1.719,2.909,2.684l-1.047,2.402c0.851,1.101,1.612,2.281,2.606,3.265     l0.692-0.451c4.081,0.526,6.161,4.462,8.565,5.086l0.834-0.845l-0.054-0.338l1.667-1.876c1.345,0.81,4.575,0.676,4.575,0.676     l0.834,0.882c0.644,0.319,2.182,0.788,2.182,0.788c1.327,0.51,2.317,1.624,3.387,2.515c0.498-0.301,0.984-0.625,1.507-0.883     c1.363,0.611,2.77,1.121,4.15,1.689c0.434-0.758,0.959-1.472,1.276-2.289l1.153,0.807l1.188,1.575     c2.011,0.045,2.721,3.289,3.865,3.772c2.079,0.879,4.471,1.43,6.636,2.109c0.72,1.243,0.827,3.893,2.107,4.608l0.567-0.076     c0.805,0.402,1.566,0.618,2.43,0.244c1.015,1.627,3.011,5.556,2.021,7.412c-1.199,0.714-3.318,2.401-4.403,2.865     c-0.948,0.404-2.173-0.619-2.85,0.587h-0.443c-0.521,0.862-0.318,2.065-1.206,2.722c-0.832,1.938,1.084,2.608,1.845,4.053     c-0.612,0.459-1.579,1.248-1.614,2.063c-1.237,0.982-2.276,2.99-2.749,4.484c-0.866,0.007-2.304,2.261-0.939,2.552     c0.28,0.834,0.708,1.607,0.993,2.439c-1.747,0.609-3.695,0.778-5.355,1.613l-0.55-0.356c-0.795-0.142-1.64-0.052-2.377-0.432     l-0.674,1.52l-1.632,0.808c0,0-2.674-0.276-2.979,0.056c-0.735,0.018-1.44,0.779-1.614,1.37c0.49,1.033,1.382,2.15,2.199,3.321     l0.904,0.957c0.856,0.188,3.038,1.819,3.831,2.344l1.4,1.294l-1.17,1.764c1.476,1.606,3.346,2.789,5.143,3.997l1.117-0.395     c4.569,0.961,7.933,2.843,11.882,5.441c1.288-0.999,3.411,0.955,4.47,1.613l-0.054,0.488l1.028,1.07l-0.354,1.388     c0.373,0.878,1.131,1.671,1.295,2.627l-0.23,0.45c0.398,0.656,0.36,2.569,0.425,3.396c-2.803,0.903-5.116,1.32-7.944,1.951     c-0.432,0.755-1.219,1.108-1.791,1.727c-0.553,0.094-1.168,0.101-1.721,0l-0.887,0.582c-0.852-0.19-3.165-0.509-3.83,0.131     l-0.089-0.525l-1.152-0.656l-1.277,0.112c0.226,0.567-0.68,0.808-1.028,1.163c-0.473-0.017-0.701-0.312-1.206-0.188     c-1.899-1.295-1.923,0.116-3.618,0.15l-0.23,0.356c-0.996,0.049-2.228-0.49-2.943-0.413l-0.675,0.789     c-0.605-0.254-2.518-0.282-2.518-0.282c-0.442,0.621-0.664,2.14-1.171,2.421l-0.018,0.994c0,0-0.283,1.37-0.461,1.801     l-0.815,1.164l1.489,1.557c0,0-0.655,0.749-0.993,0.976c0.009,0.468,0.149,0.959,0.408,1.352c7.131,3.16,3.289,8.346,6.295,9.756     c4.815,2.259,24.505-1.228,30.787,4.241c0.617,0.537,1.355,2.098,1.738,2.852c0.73,1.442,1.955,3.529,2.195,5.104     c0.64,4.2-1.614,13.011,3.671,15.076c2.256,0.882,5.596-1.842,8.306-1.673c2.181,0.136,3.491,2.394,5.67,2.596     c2.581,0.24,4.762-1.511,7.287-1.635c3.421-0.167,4.45,1.369,7.323,2.02c1.55,0.351,2.997-0.719,4.544-0.654     c2.782,0.117,5.287,2.119,7.813,2.23c3.981,0.177,2.966-1.946,7.215,1.001c2.94,2.038,5.681,0.974,8.905,1.461     c2.654,2.263,0.967,3.357,2.271,5.575c0.76,1.291,2.151,1.937,3.07,3.076c0.495,0.613,0.908,1.558,0.763,2.346     c-0.284,1.541-0.605,5.981,0.528,7.134c0.489,3.643,3.551,3.807,5.852,5.884c1.801,1.625,1.145,2.657,2.035,4.518     c0.968,2.02,1.925,1.974,3.482,3.249c4.361,3.573,3.369,3.838,9.379,3.963c5.659,0.117,3.838-5.918,6.307-8.545     c1.387-1.476,1.57-3.633,2.383-5.404c2.055-4.475,5.67-8.556,7.818-12.883c1.229-2.477,1.079-5.356,2.179-7.493     c0.322-0.626,1.198-0.245,1.648-0.678l2.084-2.002c2.335-2.245-2.141-2.704,5.243-7.955c1.544-1.098,4.347,1.949,9.116-0.965     c6.782-4.145-0.123-5.396,12.472-8.113c2.823,1.358,15.025,15.214,18.492,18.559c0.914,0.881,2.216,1.195,3.263,1.878     c8.707,5.68,9.738-2.441,13.444,3.812c1.331,0.61,2.931,0.537,4.177,1.347c1.314,0.854,1.784,2.703,2.851,3.832     c5.068,5.364,9.354,9.295,0.628,12.896c-1.943,0.803-3.783,2.359-5.97,2.409c-3.841,0.088-8.083-9.763-16.6-7.795     c-7.733,1.786-2.072,8.4-8.354,15.118c-4.816,5.152-12.132-2.914-13.429,2.428c-0.575,2.371,0.161,2.75,0.869,4.867     c1.395,4.169,3.318,3.893,5.999,6.555c0.498,0.494-0.035,7.57,0.287,8.994c0.248,1.093,1.2,1.833,1.609,2.855     c0.882,2.205,0.954,4.887,2.27,6.902c0.912,1.398,2.292,2.371,3.343,3.649c0.804,0.979,1.161,2.212,1.895,3.233     c1.174,1.637,3.245,1.773,5.04,2.232c2.014,0.514,3.979,1.318,6.06,1.531c7.143,0.73,9.564,1.395,9.563,9.474     c-1.93,1.526-2.927,5.69-1.598,7.765c-0.687,0.305-1.029,0.031-1.745,0.309c-0.298,0.43-0.887,1.088-1.417,1.241l-1.453,0.966     c-0.72,1.127,0.146,1.936-1.749,3.188c0.688,0.052,1.34,0.402,0.929,1.178c-0.969,1.825-1.001,1.847-1.001,1.847     c-0.112,0.965-1.93,0.174-1.365,0.898l-2.361,1.608c0.296,0.262,0.56,0.634,0.709,0.999l1.732,0.703     c-0.221,0.646-0.46,1.829-0.252,2.512l-0.756,0.198c-0.66,1.775-2.132,7.332-1.794,9.145c0.395,2.114,0.993,0.137,1.365,4.158     l-0.14,1.575c-1.176,0.698,0.378,1.447,1.017,1.656c-0.88,0.758-1.094,1.114-0.528,2.173c-1.963,0.388-4.233,0.086-6.252,0.297     l-0.245,1.668c-1.194,0.438-2.646-1.317-3.762-0.348c-1.063,0.925-3.863,0.245-4.282,1.466l1.736,1.694l0.244,1.825     c-0.439,0.379-0.672,1.297-0.692,1.843l-1.293,1.109c-2.221,1.492-5.478-0.381-7.655-0.118c-1.027,0.123-1.648,1.136-2.684,1.238     c-1.317,0.131-2.56-0.558-3.893-0.292l-0.176,1.31c-1.368,0.551-6.438,0.77-4.87,2.602l-0.535,2.908     c0.022,0.324,0.148,1.45,0.591,1.578c-0.673,2.051,0.665,3.934-0.929,7.045c-0.161,0.314,0.617,1.535,0.408,2.17     c-0.515,1.558-4.877,1.118-2.45,4.943l-0.173,0.735c0.836,1.059-1.945,12.985-2.051,15.218c-0.09,1.906-2.112,4.002-3.078,5.277     c-0.137,0.18-0.469,2.467-0.535,2.834c1.77,4.227,3,8.028,6.11,11.41c0.387-0.001,0.872-0.038,1.243,0.104     c-0.654,2.066,0.005,5.033-0.983,6.531c0.139,0.538,0.624,1.022,1.01,1.402c0.471,2.071,0.869,4.017,0.896,6.121     c0.008,0.557,1.636,2.031,1.988,2.612c0.377,0.621,0.163,0.969,0.85,1.5c0.686,0.531,1.643,0.542,2.327,1.059     c1.148,0.865,1.567,2.323,2.983,3.205c0.892,0.555,2.056,0.145,2.954,0.637c1.121,0.614,0.823,1.5,1.14,2.525     c2.441,1.206,0.871,3.332-0.438,4.626c1.785,2.318,2.499,4.899,0.957,7.396c0.069,0.793,0.749,1.48,1.417,1.849     c0.351,0.852-1.078,2.676-1.194,3.573c-0.428,3.304,1.987,4.25,2.263,6.548c0.229,1.909-0.436,3.153,0.531,5.262     c0.135,0.295,0.939,1.09,1.176,1.4c0.331,0.434-0.124,1.213,0.813,2.139c1.905,1.882,0.358,1.608,1.126,3.314     c0.293,0.651,0.999,2.974,1.786,3.618c0.829,0.68,1.953,1.159,2.854,1.799c0.308,0.219,2.624-1.029,3.494-0.374     c1.353,1.02,2.243,3.577,2.347,5.171c1.609,1.739,3.83,2.04,6.066,2.666c0.545-0.149,1.004-0.587,1.381-0.987l3.68,1.531     c-0.021,2.539,1.549,2.268,1.187,5.112c3.68,4.275,2.228,0.29,5.055,2.208l3.699-0.501c0.289-0.038,1.811,1.452,2.268,1.658     c0.601,0.271,1.269,0.039,1.854,0.401c1.296,0.805,1.607,1.49,3.253,2.152c0.056,3.922,0.083,2.291,2.188,4.352     c1.156,1.132,1.807,2.662,2.986,3.836c1.221,1.215,3.541,0.873,4.393,2.4c1.739,3.118-1.123,2.496,3.003,7.558     c0.103,0.931-0.567,1.79-0.284,2.725c1.011,3.343,2.023,1.216,2.98,2.479c0.36,0.477,0.522,0.94,1.077,1.268l0.077,2.693     c0.012,0.383,3.429,5.053,4.059,5.472c0.607,1.585,0.319,1.448,2.118,2.351c2.33,1.17,3.528,2.201,5.474,4.155     c3.679-2.188,5.3,0.466,6.478,0.03c0.93,0.756,2.453,1.98,3.58,2.301c0.159,0.331,0.172,0.782,0.141,1.14     c-0.668,0.697-2.978,3.788-3.196,4.602c2.14,0.964,1.671,3.291,1.274,5.336c0.777,1.395-0.77,3.49-1.472,4.65     c0.12,3.897-3.096,4.214-5.38,6.725c-2.176,0.413-3.968,0.99-5.408,2.776c-0.053,1.706-1.623,4.236-1.519,5.504     c-1.712,0.795-1.64,2.35-1.668,3.978l-3.496,2.093c-5.053,2.926-4.391,6.719-5.355,7.381c-1.36,0.932-5.238,2.396-6.934,2.955     c-3.63,1.198-0.488,7.906-2.508,8.354l-0.578-0.276c-3.14,1.36,1.785,2.728-0.579,6.694c-0.527,0.135-1.131,0.517-1.194,1.105     c-0.638,0.318-1.089,2.219-1.231,2.912c-0.882,0.523-0.786,0.645-1.139,1.561c-0.845,2.19-4.646,1.375-6.485,2.922     c-0.595-0.365-1.052-1.056-1.446-1.619c-0.545,0.268-1.777,2.705-3.331,3.86l0.187,0.563c-1.018,2.136-1.679-0.302-1.923-1.372     c-0.771-0.497-1.368-1.268-2.202-1.668c-2.032-0.979-2.586,2.583-4.921-1.202l-1.042-1.662c-1.674-0.429-2.741,1.701-3.62,0.129     l-2.175,0.622c-1.528,4.405-1.823,0.932-1.604,6.318c-1.526-1.854-6.43-2.483-5.684-5.193c-0.995,0.862-2.097,1.537-2.79,2.695     c-0.4,0.67-0.687,1.396-0.59,2.188c0.023,0.195,0.263,0.994,0.096,1.141c-2.249,1.969-3.553,2.113-4.539,3.016     c-0.565,0.518-3.008,3.997-3.827,3.183l-0.55-0.571c-0.637,0.465-3.273,2.189-4.097,1.92l-0.326,0.572     c0.199,1.219-0.042,2.533,0.214,3.686c0.249,1.116,1.318,0.381,1.603,2.118c2.536,1.647,0.01,3.372,4.115,6.512     c0.101,3.816,3.632,3.997,4.247,6.366c-0.762,1.177-1.194,2.334-0.809,3.736l-1.673,0.295c-0.408,1.471-0.564,1.525-1.701,2.479     c-0.18,0.786-0.335,1.696-0.743,2.399c1.272,1.384-1.02,2.291-2.102,2.41c-0.244,1.282,1.916,1.734,2.705,2.891     c-0.516,2.24-0.792,3.386-2.687,4.85c0.354,0.41-0.771,1.889-0.771,1.889c1.175,1.111,3.28,0.725,1.646,3.255l-0.976,0.157     c0.282,0.549-1.2,6.426-1.469,7.74c0.3,0.602-0.894,1.508-1.283,1.84c-0.476,1.629-0.054,3.583-0.359,5.232     c-0.08,0.434,0.342-0.077,0.462-0.128c1.028-0.435,4.079,0.397,4.722,1.249c3.383,4.483,10.424,8.807,13.361,13.657     c-1.073,1.372-0.282,3.352,0.734,4.525l-0.407,0.834c-3.914,6.605-1.533,4.278-3.62,10c-0.196,0.54,0.855,0.854,0.213,2.048     c0.205,0.784-0.66,1.342-1.074,1.87c-0.742,0.949-0.9,1.636-0.897,2.782c0.011,3.846-2.477,1.385-4.312,1.386     c-1.261,0.001-1.266,0.858-2.893,0.45c0.157,0.629,0.4,1.244,0.638,1.848c-0.609,2.995-2.31,1.123-2.219,3.59     c-3.058,4.265,1.139,4.438-2.32,8.654c-1.922-0.067-2.539,1.896-3.281,1.907l-1.358-2.367c-0.668,2.205-2.401-0.034-3.245,0.284     c-0.247,0.422-0.502,0.866-0.665,1.33c-2.011-0.08-1.549,1.232-3.697,0.646l-1.775-0.118c0.144,0.677-0.623,2.213-0.959,2.746     c-0.966-0.799-2.035-1.362-3.246-1.677c-0.221-0.058-0.742-0.11-0.891-0.315c-1.326-1.832-5.901-4.908-6.7-6.487     c-0.606-1.2,0.607-2.31,0.947-3.333c0.366-1.104,0.712-1.738,1.802-2.232c-5.824-0.012-4.353,2.566-6.115,2.873     c-0.511,0.09-0.79-1.029-1.454-1.185c-1.547,1.517-2.352,0.118-2.512,2.909c-0.397,0.564-0.995,1.473-0.436,1.336     c0.288,0.396-1.796,2.245-2.179,2.271l-3.959,0.273c-0.085-1.307-2.979,0.355-3.65,0.628c-0.49,0.761,0.382,3.17-1.231,2.927     l-1.439,1.998l-0.733-0.494c-0.446-1.152-1.828-0.656-2.722-1.846c-0.672,1.98-1.875,4.871-3.84,2.159     c-0.725-1.001-0.868,0.392-1.604,0.568l-1.162-0.455c-0.283,0.689-0.712,1.863-1.231,2.372c-1.252-0.126-2.548-0.345-3.808-0.301     c-0.791,3.111-2.99-0.719-3.563-0.922c-1.906-0.676-1.813,2.012-2.942,2.012c-1.177,0-2.29-2.215-3.871-2.846l-0.222-0.77     l-1.509-0.969c0.331-0.494-1.665-0.949-1.989-1.47c-0.85,0.011-5.631-3.495-6.043-4.142l-0.613-0.201     c-1.991,0.541-1.229,5.524-1.718,7.289c-0.329,1.189-4.316,2.115-5.451,2.234c-2.59,0.27-2.399-1.469-3.313-1.828     c-0.713,1.508-2.114-3.416-4.838-3.363l-1.116,0.027c-1.479,0.141-0.598,2.463-0.931,3.283c-0.235,0.58-0.82,0.803-1.174,1.286     c-2.322,3.171-1.611,4.621-5.971,1.774c-0.223,2.1-0.341,4.068-2.885,4.258c-0.745,0.879-0.748,3.657-1.794,4.445     c-1.069,0.806-4.592-1.503-5.678-1.197c-1.332,1.563-2.244,5.465-3.739,5.636l-0.2,1.292c-0.552,0.463-1.324,0.162-1.561-0.467     c-0.589-1.568-4.263-2.286-5.794-3.125c-0.491-0.269-2.507,0.026-3.338-0.205l-0.28-0.666c-1.013-0.671-2.481-0.892-3.605-1.436     l-2.143,0.938c-2.296-3.956-5.284,2.637-7.292,2.728c-1.331-2.06-1.948,0.139-3.039,0.599c-2.581,1.088-2.604-5.63-4.429-7.153     c-0.938-0.784-2.304,0.384-2.896-0.042c-0.909-0.652-0.622-2.207-2.173-1.889c-2.625,0.537-0.193,1.893-1.898,2.357     c-1.66,0.451-1.762-1.356-2.891-1.301c-1.983,0.096,0.129,1.412-0.156,2.177c-0.329,0.881-1.709,1.612-1.869,2.545     c-0.168,0.976,4.09,5.209,1.019,6.342c-2.394,0.883-3.709-3.673-5.132-4.069c-0.308-0.086-4.721-0.068-4.01,1.586     c-2.089,1.99-1.039,1.83-2.045,3.168c-1.17,1.557-2.069,0.032-3.197,2.954c-1.62,4.193-2.056-0.206-3.226,2.392     c-0.322,0.715,0.643,1.793,0.328,2.829c-0.494,1.627-1.982,2.462-2.666,3.913c-0.522,1.107,0.36,1.318,0.322,2.244     c-0.957,1.225-1.726,2.162-2.299,3.63l-1.079,0.698c0.186,0.457,1.021,1.877,1.021,1.877c1.699,1.393,0.691,1.243,1.388,2.62     c0.538-0.187,1.183,2.433,1.656,3.126c-0.172,0.502-2.482,1.916-2.783,1.369c-0.377-0.686-1.763-1.065-1.874-0.268     c-2.209-0.074-2.327,0.391-3.812,1.953c-1.61-0.186-2.979,0.67-3.546,0.568c-2.019-0.365-1.644-1.531-4.34-0.908     c0.104-1.894-1.377-2.135-1.437-3.694c-0.042-1.112,0.491-2.757,0.526-4.017c0.031-1.119-2.19-2.575-2.713-3.62     c-0.335-0.669-0.779-2.849-1.157-3.216l-1.649-1.513c-0.083-0.503-0.351-1.348-0.773-1.685c0.297-1.781-0.845-1.206-1.151-2.409     c-0.156-0.613-0.076-2.263-0.555-2.641c-1.029-0.813-5.276-0.667-6.477-1.112c-0.602-0.223-0.602-0.788-1.004-1.195     c-0.83,0.181-1.581,0.166-2.409,0.204c-0.331,0.015-2.948,3.326-3.759,3.835c-1.088,0.684-2.464,0.62-3.252,1.772     c-0.764,1.116-1.103,2.578-2.12,3.515l-0.764-0.057c-0.815,0.916-2.185,1.902-2.658,2.983c-0.86,0.427-1.845,0.124-2.73,0.425     c-0.974,1.373-2.871,1.474-4.226,2.465c-1.802-0.209-1.305,0.468-2.401,0.646c-1.313,0.212-2.686-0.676-3.976-0.227     c-0.823,0.287-1.834,1.777-2.656,2.316l-1.151-0.156c0.096,0.47-0.239,1.18-0.559,1.504c0.259,1.285-2.242,2.918-3.035,3.918     c-1.779,2.242-3.214,1.986-6.072,1.018c-1.322,0.559-1.459-0.034-2.479,0.197c-0.909,0.207-0.642,2.906-2.865,3.281     c-1.132,0.191-2.747,0.76-3.862,0.55c-0.597-0.111-1.062-0.542-1.7-0.349l-1.259,1.504c-0.075,0.346,0.019,0.82,0.231,1.104     c-1.19,1.52-2.635,3.3-4.363,4.101c-0.296,0.812,0.396,1.778,0.936,2.332c-0.442,1.469-1.907,2.348-2.506,3.732     c0.211,1.08,0.034,9.594,0.172,9.764c1.291,1.592,2.02,3.338,2.863,5.236c0.688,1.549-2.159,2.416-1.948,3.266     c0.332,1.336,2.424,3.418,3.5,4.283c0.319,0.257,1.585,0.671,1.4,1.25c-4.59,1.939-2.847,2.687-5.599,5.575     c-0.666,0.699-1.318,0.162-1.964,1.418c-0.347,0.673-0.055,2.255-0.436,2.671c-0.534,0.584-2.066,1.059-2.066,1.059     c-1.418,0.693-2.54,1.499-3.816,2.447c-2.146,0.086-1.924,2.572-3.273-0.416c-2.609-5.777-6.733,0.495-9.2,2.68     C309.99,1003.745,306.588,999.309,306.207,998.346z"
   fill="#FEFEE9"
   style="fill:#ffffff;fill-opacity:1" />
		</g>
		<g
   id="Seen">
			
				
			
			
			
		</g>
		<g
   id="g4665">
			<path
   d="M691.307,707.612c0.16,0.07,0.3,0.15,0.43,0.24c-0.13-0.08-0.27-0.16-0.43-0.229V707.612z"
   id="path4637"
   fill="#FDFCEA" />
			<path
   d="M624.367,640.682c-0.13,0.01-0.25,0.04-0.38,0.06C624.117,640.712,624.247,640.692,624.367,640.682z"
   id="path4639"
   fill="#FDFCEA" />
			<path
   d="M622.407,641.192c0.26-0.069,0.61-0.189,0.99-0.3C623.017,641.002,622.667,641.122,622.407,641.192z"
   id="path4641"
   fill="#FDFCEA" />
			<path
   d="M622.397,641.192c-0.19,0.05-0.32,0.07-0.4,0.04C622.087,641.262,622.218,641.232,622.397,641.192z"
   id="path4643"
   fill="#FDFCEA" />
			<path
   d="M514.167,901.682c0.04,0.06,0.09,0.11,0.141,0.16C514.257,901.802,514.207,901.741,514.167,901.682z"
   id="path4645"
   fill="#FDFCEA" />
			<path
   style="fill:#fdfcea"
   d="m 473.927,913.612 0.27,0.66 -0.28,-0.66 z"
   id="polygon4647" />
			<path
   d="M391.197,924.552c0.07,0.12,0.12,0.229,0.2,0.33C391.317,924.781,391.257,924.672,391.197,924.552z"
   id="path4649"
   fill="#FDFCEA" />
			
			<path
   d="M118.717,244.782c0.76,1.83,1.51,3.62,2.21,5.45C120.227,248.402,119.467,246.612,118.717,244.782z"
   id="path4653"
   fill="#FDFCEA" />
			<path
   d="M105.477,254.362c-0.26,0.27-0.5,0.54-0.75,0.81C104.967,254.902,105.217,254.622,105.477,254.362z"
   id="path4655"
   fill="#FDFCEA" />
			<path
   d="M95.837,250.732c0.03-0.02,0.05-0.05,0.06-0.09C95.887,250.682,95.867,250.712,95.837,250.732z"
   id="path4657"
   fill="#FDFCEA" />
			<path
   style="fill:#fdfcea"
   d="m 94.647,250.552 v 0.01 l -0.01,-0.01 z"
   id="polygon4659" />
			
			<path
   d="M29.017,111.232c-0.42,0.45-2.74,2.01-3.21,1.24c-0.78-1.27,1.07-5.27,1.26-6.83     c0.22-1.78-0.01-3.81-0.1-5.61c1.83,0.65,5.71,1.43,6.46-1.06c0.95-3.12-5.21-2.92-4.76-6.53c0.36-2.87,5.78-1.18,5.04-5.14     c-0.41-0.42-1.28-0.15-1.8-0.5c0.78-1.05,1.58-2.08,2.48-3.03c2.86,0.36,6.37,1.15,9.12,1.99c1.3-0.68,2.73-1.04,4.11-1.5     c0.27,0.69,0.74,1.28,1.15,1.89l2.25,0.12c-0.65-1.7-1.43-3.41-1.77-5.21l1.26-2.79c1.13-2.29,11.77-0.94,11.9-1.12     c-0.45-2.67-1.48-5.35-2.13-7.99c0.62-1.79,4.93-6.65,6.21-9.18c1.51,0.63,3.07,0.6,4.7,0.69c0.12,0.12,0.23,0.24,0.33,0.38     c0.2,0.27,0.36,0.59,0.51,0.93c0.21,0.51,0.37,1.09,0.48,1.69c0.08,0.41,0.14,0.82,0.19,1.24c0.2,1.67,0.25,3.39,0.54,4.48     c0.29,1.12,3.14-0.2,3.03,0.87l6.34,0.33c-0.27-0.35-0.54-0.83-0.87-1.12c1.57-0.48,3.74-0.3,5.36-0.26l0.64,0.9l7.74-0.38     l1.88,2l1.01-0.84l-3.25-4.92c4.27-2.99,8.65-5.78,13.01-8.64c0.59,0.08,2.35,2.98,2.74,3.62l1.34-0.78     c0.67-0.39,4.29-1.41,4.35-1.47c0.6-0.59,0.8-1.48,1.28-2.15c1.77-2.46,4.52-4.18,6.95-5.89c-0.02-0.66-0.05-2.33-0.33-2.93     c0.65-0.98,2.22-0.92,2.53-2.33l0.8,0.25c2.31-1.05,4.8-2.21,6.68-3.97l-3.13-2.87l-0.9-1.86l2.37-2.24l1.61,0.91     c1.77-1.37,3.58-2.69,5.32-4.1l0.08-1.8c3.76-2.07,5.14,1.09,7.68,0.33l3.79,0.75l4.76-4.5c0.23,0.23,2.04,1.81,1.41,0.98     c0.65,0.52,3.35,2.03,2.67,0.67c0.57-0.53,1.26-0.95,1.91-1.37c1.07,1.26,3.62,4.26,4.89,4.56l0.99-0.31     c1.78,1.26,2.28,3.68,3.99,5.01c1.25,0.98,6.5,1.01,9.54,4.24c1.92-1.83,4-2.55,5.54-4.89c3.97,0.31,10.16-2.94,13.15-5.89     l4.03,0.02c1.02,0,9.06-0.24,9.17-0.19c1.3,0.65,1.61,2.29,1.73,3.6c0.5,5.76,2.04,2.89,4.97,2.87l0.71,0.46l0.11,0.4     c1.38-1.18,4.66-9.43,6.89-6.82l-0.37,0.54l0.36,2.02c0.04,0.17,4.63,3.63,5.1,3.58l-0.02,0.54c0.9,0.69,5.68-2.26,6.74-2.81     l0.36-0.68l4.19,3.67l0.42,1.93c1.33,1.37,2.63,0.21,3.72,2.56c0.81-0.39,1.56-0.92,2.37-1.33c0,0-0.21,1.25,0.76,2.01     c0.48-0.69,1.04,0.55,2.31,0.9c0.37-0.08,2.7-0.53,2.29,0.11l-0.7,0.28c-0.25,0.55-1.19,0.59-1.71,0.59     c-0.53,0.51-0.29,1.12,0.17,1.58c-0.43,1.1,4.64,4.04,5.66,4.36c-0.17,0.71,0.76,2.3,1.31,2.76l-0.22,0.46     c1.82,1.87,3.97,3.54,5.69,5.44l-0.67,0.28l-0.68,1.31c1.13,2.69,2.44,5.3,3.39,8.06l-0.7,0.21l-0.11,1.01l-0.69,0.09     c2.34,3.01,6.05,5.5,9.06,7.82c2.26-0.41,4.52-0.86,6.79-1.16l5.95,3.82c1.54,4.78,2.72,9.26,5.18,13.7l5.41-1.78l-0.51-1.32     l3.63-0.98c0.55,1.92,0.94,3.87,1.53,5.78l-0.51,0.2l0.28,0.96l-0.15,0.52l0.81,1.69l2.12-0.56c0.24,0.76,0.53,1.51,0.72,2.28     l2.02-0.48l7.89,7.87c-0.63,1.27-1.05,2.62-1.55,3.94l0.66,0.94l0.38-0.14l0.9,3.19c0.99-0.29,2-0.52,3.01-0.73     c0.98,2.18,1.57,4.52,2.11,6.85l-0.64,0.14l0.38,1.46l0.66-0.16l0.59,2.35c0.93-0.46,1.63,0.29,2.5,0.06l0.21-0.4     c3.16-1.15,5.58-0.77,8.83-0.62c0.68-2.46,1.22-4.96,1.92-7.41l6.13,2.56c-0.37,1.99-0.84,3.98-0.94,6l-1.29,0.18h-0.01     c-0.27,0.62-0.47,1.26-0.61,1.9c-0.63,2.77-0.26,5.71-0.55,8.55l0.21,0.51l-0.96,2.83l1.12,1.17c-0.3,1.79-0.39,2.79,0.03,4.17     c0.12,0.4,0.28,0.83,0.49,1.32c-5.09,4.52-2.12,5.12-6.52,10.26c0.41,2.2,0.77,4.43,0.85,6.66c1.2-0.37,2.41-0.67,3.62-1.01     c0.1,0.18,0.22,0.37,0.33,0.55c0.59,0.9,1.35,1.76,2.05,2.64c0.28,0.35,0.54,0.7,0.79,1.06l-0.35,0.55l2.05,3.22l-0.57,0.35     c0.54,1.13,1.3,2.14,1.99,3.19c-0.21,0.1-0.77,0.32-0.93,0.47c-0.34,0.34-0.69,1-0.97,1.4c-2.76,3.93-4.42,4.11-8.43,6.24     c0.37,0.75,0.27,2.72,0.27,2.72l0.04,1.88c7.08,0.37,9.42-1.73,15.66,3.53c0.85,0.72,1.75,3.64,2.07,3.87c0,0-2,1.67-2.39,2.34     l0.1,0.88c0.67,0.75,3.75,3.41,4.72,3.08l0.78,0.44c1.02-0.14,2.06-0.16,3.09-0.23c0.15,0.76,0.41,1.48,0.61,2.22     c0.36,0.08,0.76,0.28,1.03,0.54c-0.18,0.42-0.07,2.87-0.07,2.87l0.19,1.37c0.92,0.13,1.85,0.19,2.78,0.21     c0.06,0.94,0.34,1.88,0.41,2.84c1.65,1.33,3.19,2.4,5.03,3.53c1.221,0.76,0.04,3.52,4.471,3.55l1.069,3.89     c2.58-0.4,5.13-0.97,7.66-1.63l-0.32,4.37c0.98,0.06,2.16-0.72,2.99-1.18c0.771,1.66,1.67,3.24,2.521,4.86l2.59-1.11     c0.77,0.36,1.76-0.82,2.56-0.84l2.71-0.06c0.46-0.58,0.92-1.17,1.471-1.67l-0.74-0.88c0.72-0.55,1.38-1.24,2-1.9     c0,0,1.84,0.4,2.27-0.11c0.25,0.42,0.75,0.79,1.21,0.96l-0.04,1.1c-0.67,0.41-0.25,1.9,0.271,3.38c0.09,0.27,0.189,0.54,0.29,0.8     c0.05,0.13,0.1,0.26,0.14,0.39c0.18,0.51,0.34,0.98,0.44,1.36c0.04,0.2,0.069,0.37,0.08,0.51c0.1,0.13,0.21,0.26,0.33,0.38     c0.789,0.84,1.779,1.46,2.579,2.3l-1.04,2.41c0.851,1.1,1.61,2.28,2.601,3.26l0.7-0.45c4.08,0.52,6.16,4.46,8.56,5.08l0.83-0.84     l-0.05-0.34l1.67-1.87c1.34,0.81,4.57,0.67,4.57,0.67l0.84,0.88c0.64,0.32,2.18,0.79,2.18,0.79c1.33,0.51,2.32,1.63,3.39,2.52     c0.49-0.3,0.98-0.63,1.5-0.89c1.37,0.61,2.771,1.12,4.15,1.69c0.44-0.75,0.96-1.47,1.28-2.29l1.149,0.81l1.19,1.58     c2.01,0.04,2.72,3.28,3.87,3.77c2.08,0.88,4.47,1.43,6.63,2.11c0.72,1.24,0.83,3.89,2.11,4.61l0.569-0.08     c0.8,0.4,1.561,0.62,2.431,0.24c1.01,1.63,3.01,5.56,2.02,7.42c-1.2,0.71-3.32,2.4-4.41,2.86c-0.939,0.41-2.17-0.62-2.84,0.59     h-0.45c-0.52,0.86-0.319,2.06-1.2,2.72c-0.84,1.94,1.08,2.61,1.841,4.05c-0.61,0.46-1.58,1.25-1.61,2.07     c-1.24,0.98-2.28,2.99-2.75,4.48c-0.87,0.01-2.31,2.26-0.94,2.55c0.28,0.84,0.71,1.61,0.99,2.44c-1.75,0.61-3.689,0.78-5.35,1.61     l-0.55-0.35c-0.801-0.14-1.641-0.05-2.381-0.43l-0.68,1.52l-1.63,0.8c0,0-2.67-0.27-2.98,0.06c-0.729,0.02-1.439,0.78-1.609,1.37     c0.49,1.03,1.38,2.15,2.2,3.32l0.899,0.96c0.86,0.19,3.04,1.82,3.83,2.34l1.41,1.3l-1.17,1.76c1.47,1.61,3.34,2.79,5.14,4     l1.11-0.4c4.58,0.96,7.939,2.84,11.89,5.44c1.28-1,3.41,0.96,4.471,1.62l-0.061,0.48l1.03,1.08l-0.351,1.38     c0.37,0.88,1.131,1.67,1.29,2.63l-0.229,0.45c0.399,0.66,0.36,2.57,0.43,3.4c-2.81,0.9-5.12,1.32-7.95,1.95     c-0.43,0.75-1.22,1.11-1.79,1.72c-0.55,0.1-1.17,0.1-1.72,0l-0.89,0.59c-0.851-0.2-3.16-0.51-3.83,0.13l-0.09-0.53l-1.15-0.66     l-1.28,0.12c0.23,0.56-0.68,0.8-1.02,1.16c-0.48-0.02-0.7-0.31-1.21-0.19c-1.9-1.29-1.92,0.12-3.62,0.15l-0.23,0.36     c-0.989,0.05-2.229-0.49-2.939-0.41l-0.68,0.79c-0.601-0.26-2.511-0.29-2.511-0.29c-0.449,0.62-0.67,2.14-1.18,2.42l-0.01,1     c0,0-0.29,1.37-0.46,1.8l-0.82,1.16l1.49,1.56c0,0-0.66,0.75-0.99,0.98c0.01,0.46,0.15,0.95,0.41,1.35     c0.41,0.18,0.78,0.37,1.12,0.56l-0.061,0.12l-2.62,0.75h-1.38l-0.5,0.88c0,0-1.75,1.25-2.12,1.75c-0.38,0.5-0.5,1.12-1.13,1.75     c-0.62,0.62-1.37,0.87-2.25,0.87c-0.87,0-1.37,0.5-3.12,0.5s-2.75,0.88-2.75,0.88s-1.75,0.25-2.38,0.25     c-0.62,0-1.37,0.12-2.12,0.87s-2.88,1.38-3.75,1.38c-0.88,0-1.63,0.37-2.13,0.87s-2.25,1.25-2.5,1.88     c-0.25,0.62-1.62,0.87-2.12,1.25c-0.5,0.37-1.13,1-0.63,1.75s-0.25,1.62-1,1.75c-0.75,0.12-1.25,1.87-1.5,2.62s-1,0.75-1.87,0.63     c-0.88-0.13-0.5-0.5-1.38-0.38c-0.87,0.13-2.87-0.37-3.62-0.37s-1.63,0.62-2.25,1.12c-0.63,0.5-1.63,1.88-2.13,2.38     s-1.62,1-2.12,1s-2.13,0.25-2.63,0.25s-1-0.13-1.87-0.75c-0.88-0.63-4-0.38-4-0.38l-2.25,0.25c0,0-1.25,1-2.5,1.25     s-1.38,1.25-1.63,2.13c-0.25,0.87-1.25,0.62-2.25,0.87s-2.62,1.75-3.12,2s-0.63,1.13-1.25,1.25c-0.63,0.13-0.25,0.88-0.5,1.63     s-0.75,1.25-1.38,1.37c-0.62,0.13-1.37,0.38-2,1.25c-0.62,0.88-1,0.88-1.5,0.88s-2.12,0-3.25,0c-1.12,0-2.12,1.37-3,1.5     c-0.87,0.12-3,0.25-3.5,0.75s-2.62,0.25-3.62,0.25s-1.25,0-1.25-0.75s-1-0.38-1.63-0.25c-0.62,0.12-1.5,0.25-2.25,0.25     s-1.25-0.25-2,0.37c-0.75,0.63-2.37-0.37-2.87-0.75c-0.5-0.37-0.75-1.25-1-1.87c-0.25-0.63-1.13-1.13-1.75-1.13     c-0.63,0-2.63-0.12-2.63-0.12l-1.5-1c0,0-1.62-1.25-2.25-2c-0.62-0.75-0.87-1.75-1-2.75c-0.12-1-1.62-1.13-1.62-1.13l-0.25-2.12     c0,0-0.75-1.38-0.88-2c-0.12-0.63-0.75-2-1.5-2.63c-0.75-0.62-2.12-1.25-2.87-1.25s-1.75-1.12-1.88-1.87     c-0.12-0.75-0.37-1.5-1-1.5c-0.62,0-0.62-0.25-1.5-0.88c-0.87-0.62-0.5-1.12,0-1.62s-0.5-1.13-1.12-1.63c-0.63-0.5,0-2,0.12-2.5     c0.13-0.5,1.13-1.25,1.13-1.25s0-3.87,0-5c0-1.12-0.63-1.25-1.25-1.5c-0.63-0.25-1-0.75-1-0.75v-1.5c0,0-0.5-0.12-1-0.12     s-1.63-0.13-2.13-0.25c-0.5-0.13-1.12-0.25-1.12-0.75s-0.13-2.88-0.13-3.5c0-0.63,0.38-0.75,1.13-1s1.12-1,1.12-1l1.5-3.13     l1-1.87c0,0,0-2,0-2.5s0.63-0.88,1.13-1.25c0.5-0.38,0.62-1.13,0.62-1.75c0-0.63-0.25-1.38-1-1.88s-1.12-0.62-1.12-1.25     c0-0.62-2.13-2.25-2.75-2.87c-0.63-0.63-0.25-0.5-1-0.63c-0.75-0.12-0.63,0-1.25,0.13c-0.63,0.12-1.38-0.63-1.38-0.63l-1.37-1.12     c0,0-1.63-0.63-2.25-0.63c-0.63,0-1.63-1.12-2.25-1.75c-0.63-0.62-1.13-0.87-1.25-1.62c-0.13-0.75-0.5-1-1.13-1.5     c-0.62-0.5-0.12-1.63,0.25-2.38c0.38-0.75,0.13-1.75-1-2.62c-1.12-0.88-1.75-0.63-2.25-0.25c-0.5,0.37-1.37,0-1.87-0.5     s-2.63-2.75-3.13-3.13c-0.5-0.37-0.62-0.87-0.62-1.5c0-0.62,0.37-1.5-0.38-2s-5.25-3.5-5.25-3.5l-2-1.75c0,0,0-1,0-2.25     s-0.25-2-1-2.5s-0.75-1.12,0.38-1.37c1.12-0.25,0.75-0.88,0.62-2.25c-0.12-1.38-1-1.5-2-1.38c-1,0.13-1.37-1-1.75-1.62     c-0.37-0.63-2.12-0.63-3.75-0.63c-1.62,0-2.25,0-2.25,0.75s-0.62,1.5-1.25,1.88c-0.62,0.37-0.87,0.37-1.37,1     c-0.5,0.62-1.75,0-2.38-2c-0.62-2-3.87-1.13-3.87-1.13s0,1.88,0,2.38s1.12,1.87,2,2.12c0.87,0.25,2.12,1.38,2.5,1.88     c0.37,0.5,1.12,1.75,1,2.87c-0.13,1.13,0.5,1.75,0.87,2.25c0.38,0.5,0.75,3.5,0.13,4c-0.63,0.5-0.25,0.88,0,1.63     s-0.38,1.12-0.88,1.62s-1.25,1-1.62,1.75c-0.38,0.75-0.63,0.88-1.38,0.88s-1.37,0.12-2.87,0.75c-1.5,0.62-0.63,1.5-0.13,2.62     c0.5,1.13-1.5,1.75-3.12,2.5c-1.63,0.75-0.88,1.63-0.88,2.63s0.5,1.5,1.38,2c0.87,0.5,0.87,1.37,1.25,2.62     c0.37,1.25-1.13,1.63-1.75,2c-0.63,0.38-1.63,0.38-2.5,0c-0.88-0.37-1.5,0.13-1.88,0.88c-0.37,0.75-0.62,0.62-1.25,0.75     c-0.62,0.12-0.62,0.25-0.87,0.75s-0.5,0.87-1.38,1.25c-0.87,0.37-1.5,0.5-1.12,1.62c0.37,1.13-0.38,0.88-1,0.38     c-0.63-0.5-1.38-0.25-1.88-0.25s-1.87,0.5-2.5-0.38c-0.62-0.87-2,1-2.75,1.38c-0.75,0.37-0.5,0.75,0.13,1.25     c0.62,0.5,0.12,1.5-0.38,2s-0.12,0.75-0.12,1.37c0,0.63-0.88,1.75-1.13,2.25s-0.37,1.38-1,1.38c-0.62,0-1.25,1.62-1.25,2.12     s0,1.25,0.5,2.13c0.5,0.87-0.12,1.62-0.75,1.87c-0.62,0.25-0.75,1.25-0.75,1.25s0.13,2.25,0.13,3.5s-1.25,1.63-1.75,1.75     c-0.5,0.13-1,0.5-1.5,0.88c-0.5,0.37-0.88,0.62-2-0.38c-1.13-1-1,0.88-1.63,1.63c-0.62,0.75-0.37,1.87-0.37,2.75     c0,0.87,0.87,1.25,0.87,1.25s3.13,1,3.88,1s0.37,1,0,2.25c-0.38,1.25-0.38,1.25-2.25,1.75c-1.88,0.5-0.88,1.25,0.37,1.37     c1.25,0.13,0.88,2,0.88,2l-1.63,3.13c0,0-0.62,1.12-2,1.25c-1.37,0.12-1.12,1.12-0.12,1.37s2.12,0.38,2.62,0.63s1,0.62,0.88,1.87     c-0.13,1.25-0.5,1.5-1.25,1.5s-1,0-2.13,0.25c-1.12,0.25-4.12,2.5-4.12,2.5s-1.25,0.5-2.38,0.38c-1.12-0.13-1.5,0.75-1.5,0.75     s-1.37,1.25-1.62,2.12c-0.25,0.88-1.5,1-1.5,1s-2.13,0.38-3.13,0.5c-1,0.13-1.12,1.13-1.37,1.63s-1.5,2.12-2,2.5     c-0.5,0.37-1.13,0.75-1.63,1.12c-0.5,0.38-2,2.13-2.75,2.75c-0.75,0.63-1.37,0.63-2,0.63c-0.62,0-3,0-3.5,0s-2-0.63-2-0.63     s-1-1.37-1.62-1.87c-0.63-0.5-0.88-1.5-0.5-2c0.37-0.5,0.5-1.63,1.37-2.5c0.88-0.88,2.88-0.75,3.88-0.25s2.5,0.12,3.25-0.38     s4.37-2.62,5.62-3.75c1.25-1.12-0.5-1.87-1.62-2.62c-1.13-0.75-4-0.75-4.75-0.88c-0.75-0.12-2.75-0.37-3.38-0.25     c-0.62,0.13-3.37,0.25-4.87,0.25s-3.75-0.25-5.25-1.12c-1.5-0.88-5.13-4.13-5.75-4.88c-0.63-0.75-3.75-4.12-4.25-4.75     c-0.5-0.62-1.75-1.12-3.25-1.5c-1.5-0.37-3.25,0.75-4,1.25s-4.75,0.38-6.13,0.38c-1.37,0-3-0.75-4.25-2.38     c-1.25-1.62-1.75-4.75-1.75-6.25s0.88-8.37,0.88-10c0-1.62,0.87-3.75,1.12-4.25s2.5-4.87,3.13-5.62c0.62-0.75,1.5-3.38,1.5-3.38     s2-2,2.75-2.62c0.75-0.63,0.37-1.25,0-2c-0.38-0.75-1-0.88-1-0.88s-1.88-0.25-2.5-0.12c-0.63,0.12-1.5-0.13-1.75-0.63     s-1.25-1-2-1.87c-0.75-0.88-2.25-0.88-2.75-0.25c-0.5,0.62-2.13,0.5-2.5,0c-0.38-0.5-1.13-0.25-4.38-0.5s-4.12,0.5-4.12,0.5     s-3.38,1.5-4.25,2.12c-0.88,0.63-2.5,0.63-3.13,0.5c-0.62-0.12-3.12-0.75-3.62-0.87c-0.5-0.13-1.5-0.5-2.13-1.63     c-0.62-1.12-1.62-1.5-2.12-1.12c-0.5,0.37-1.75,1.25-1.75,1.25s-0.88,1.25-1.13,1.87c-0.25,0.63-1.25,1.5-2.87,0.88     c-1.63-0.63-1.38-1.75-1.38-2.63c0-0.87-1.12-1.75-1.12-2.5s-0.5-1.25-1.13-1.62c-0.62-0.38-1.87-1.38-2.5-2     c-0.62-0.63-1.25-0.5-2.75-0.5s-1.25,0.37-0.87,0.87c0.37,0.5,1.25,3,2.12,4.13c0.88,1.12-0.62,1.5-1.37,1.87     c-0.75,0.38-1.38,0.38-2.13-1.37s-0.87-1.63-1.5-1.5c-0.62,0.12-1.12,0.12-1.5,0.75c-0.37,0.62-0.62,1.25-0.87,1.87     c-0.25,0.63-1,1.13-2.63,0.75c-1.62-0.37-2.25-0.62-3.12-1c-0.88-0.37-2.63-0.62-3.88-0.5c-1.25,0.13-0.5,1.88,0.13,2.25     c0.62,0.38,2.12,1,3.5,2c1.19,0.87,0.41,1.54,0.18,1.7c-0.89-0.23-0.57,0.68-1.6,0.22c-5.38-2.46-4.55-6.07-11.38-3.42     c-1.22-0.48-2.1-1.87-3.48-1.97c-2.45-0.18-4.06,4.77-6.73,3.83c-1.5-0.53-0.51-4.53-3.91-5.56c-3.35-1.01-3.77,1.95-5.86,3.58     c-0.98,0.76-2.17,0.87-3.29,1.29c-1.01,0.38-1,2.83-2.46,3.24c-1.49,0.41-3.13,0.36-4.43,1.32c-1.9,1.42-0.9,3.56-4.33,4.31     c-2.06,0.45-4.99,1.03-7.08,1.14c-0.52-3.49-2.76-5.83-4.12-8.91c-0.34-0.77,0.14-1.64-0.34-2.41c5.8-6.34,9.29,2.82,13.22,2.08     c4.04-0.75,0.52-3.81,5-7.21c3.99-3.02,3.76-1.67,5.95-2.66c0.4-0.17,0.85-1.33,0.52-1.45c0.73-0.45,1.48-0.9,2.17-1.43     l-0.29-1.03l-1.21,0.03l0.04-4.1c-2.11-2.19-2.11-0.57-4.83,0.16c-0.73,1.85-2.48,0.73-4.03,0.8c-1.15-1.31-3.26-1.86-4.61-3.09     l0.17-0.67c3.7-2.81,2.33-0.64,6.08-5c-0.01-1.29-1.39-2.81-0.52-4c-0.21-0.3-0.22-0.79-0.13-1.13     c-0.58-0.01-0.66-0.62-0.65-1.06c0.02-1.4,3.72-1.6,1.17-3.91l-0.88-0.7c-0.55-1.71,4.05-5.96-0.62-7.69     c0.45-1.95-1.28-3.35-1.13-4.58c-1.81,1.59-1.2-2.44-1.25-2.61c-0.55-1.96,1.32-2.65,1.44-4.77c3.28,0.91,5.53,2.8,8.91,3.54     c3.1-3.16,7.19-6.77,8.51-11.12c-1.42-1.04-2.97-1.78-4.59-2.45l0.85-2.3l0.78-0.57l0.47,0.49l1.01-0.37     c0.96,0.1,7.74,5.16,8.3,5.16c1.5,0.02,2.66-0.01,3.98,0.89l1.57-0.09c1.27,0.9,1.69,1.34,3.36,0.5c0.23,0.2,0.52,0.31,0.41-0.1     c-0.22-0.87-0.78-1.67-1.21-2.45l-1.24-2.2c0.11,0.04,0.2,0.07,0.29,0.11c0.5,0.17,0.77,0.18,0.9,0.06     c0.03-0.02,0.05-0.05,0.06-0.09c0.19-0.53-1.12-2.18-1.19-2.72c-0.04-0.32,0.03-0.88,0.56-0.66c0.59,2.03,4.51-0.4,5.64,0.3     c0.58,0.36,0.24,1.25,0.24,1.77c0,0.66,3.16,5.23,3.57,5.85l0.01-0.01c0.25-0.27,0.49-0.54,0.75-0.81     c0.26-0.26,0.53-0.52,0.81-0.76l2.8,2.73c0.82,0.17,1.59-0.1,2.39-0.22c2.74-0.43,7.02,0.7,9.21,0.09l0.18-1.99l1.08-1.17     c-0.32-0.96-0.67-1.89-1.02-2.81c-0.7-1.83-1.45-3.62-2.21-5.45c-0.38-0.91-0.76-1.83-1.14-2.77c-1.77-0.15-3.54,0.13-5.31,0.18     c-12.12,0.37-19.97-1.17-30.48-7.06c-3.86-2.16-11.69-4.58-14.44-7.53c-2.39-2.55-1.11-8.04-4-9.67     c-2.97-1.69-6.37-0.33-9.51-1.16c-1.91-0.51-3.07-2.63-4.6-3.75c-1.49-1.1-3.36-1.94-4.21-3.7c-0.43-0.9-0.37-1.97,0.12-2.84     c2.49-4.42,10-0.18,9.32-5.68c-0.69-5.68-8.02-2.36-6.24-10.98c0.49-2.35-0.16-5.12,1.65-7.03c1.3-1.36,3.73,1.32,4.95,1.81     c3.53,1.44,10.16,0.35,11.11-4.04c1.44-6.7-9.26-5.97-10.5-6.66c-1.81-1.02-0.19-4.2-2.43-4.98c-3.71-1.29-2.97,1.34-4.87,3.48     c-2.49,2.8-7.82,1.7-10.23-0.36c2.16-3.13,2.33-4.46-1.25-5.74l-0.22,0.48c-8.17-2.15-0.83-3.73-0.46-7.56     c3.75,0.64,0.23-2.45-0.85-2.17c0.23-1.47,1.46-2.38,2.4-3.42c1.45,0.71,3.41,1.63,4.57-0.07c-0.38-0.71-2.4-1.91-2.4-1.91     c-0.94-0.59-1.07-1.18-0.58-2.18c2.32-1.26,8.97,0.18,5.96-4.76c-0.58-0.95-0.46-1.02-1.24-1.84c-2.43-2.56-6.47-1.74-7.48-6.38     l2.21-0.42c1.46,0.85,3.89,2.16,5.48,1.86c1.97-0.37,2.95-4.46,1.23-4.93c-1.38-0.37-1.41,0.45-2.34,0.92     c-0.54,0.28-1.94-0.11-2.59-0.1c-1.83,0.04-4.19-1.07-5.97-0.65c-0.52-1-0.65-1.84-0.79-2.95c4.14-0.98,9.1,1.82,11.78-1.05     c0.86-0.92,1.03-1.37,1-2.64l-0.56-0.77c-1.52-0.29-2.96,0.11-4.21,0.97c-0.51-0.53-0.76-1.22-1.21-1.79     c-1.17,0.53-2.62,1.36-3.87,1.59c-2.72,0.5-2.23-1.16-4.25-1.9c-4.34-1.6-10.34-3.55-2.76-7.48c0.47-0.25,2.92,1.88,3.99,1.81     c1.9-0.11,3.71-8.53,2.96-9.78C33.787,104.742,30.677,109.472,29.017,111.232z"
   id="path4663"
   fill="#FDFCEA"
   style="fill:#ffffff;fill-opacity:1" />
		</g>
		<g
   id="Linien">
			
			
			<path
   id="path26"
   stroke-miterlimit="3.8637"
   d="     M87.041,626.76c5.162,0.574,1.027-6.354,3.154-9.575c-0.146-0.616-0.236-5.093,0.519-5.2l0.866,0.498     c1.18-2.561,2.528-0.979,3.391-2.192c1.21,0.981,1.888,0.862,1.741-0.797c0.667-0.021,1.098,2.216,1.733,2.62     c0.729,0.463,5.495,0.307,5.999-0.27c0.463-0.529,2.776-3.855,3.475-3.217c0.504-0.268,0.56-0.93,0.951-1.306     c0.299,0.374,0.363,0.921,0.32,1.384c0.499,0.587,1.447,0.449,1.931,1.017c-0.354,4.023,1.597,1.107,3.079,2.96     c-0.332,0.464-1.409,3.333,0.077,1.76l0.632,0.169l0.15,3.501c-2.032,1.639-0.1,3.031,0.98,4.965     c0.722-0.195,1.706-1.549,2.507-1.965c0.852-2.059,0.512-2.079,2.828-3.18c-0.131-0.848,0.504-2.131,1.338-2.424     c0.764-2.344,6.869,2.786,7.55,1.497c0.966-1.825,0.654-1.272,2.535-1.834c1.272-3.021-0.651-1.359-2.205-3.011     c-0.286-0.305-1.208-3.011-1.528-1.41c-0.561-0.918,0.524-3.359,0.99-4.24l-0.132-0.338l-0.999-0.43     c-0.502-0.716,0.336-1.314-0.84-2.902c0.835-1.097,1.878-2.82,2.12-0.418c1.533,0.218,1.069-1.008,1.245-1.986     c0.455-2.535,1.31-5.021,1.142-7.637c-0.146-2.277-1.872-4.59-1.84-7.155c0.009-0.64,0.64-2.14,0.378-2.635     c-0.796-1.509-2.608-2.543-4.126-3.265c-0.2-1.414-0.245-3.366-1.763-3.93c-1.724-3.076-0.779-5.31-6.239-5.77     c0.012-0.864,0.134-2.818-0.954-3.12l-0.624-1.101c-0.322-0.463-0.796,0.555-1.456,0.42c-0.887-0.18-1.645-0.859-2.694-1.08     c-1.089-2.813-1.69-3.346-3.809-5.98c-0.172-0.213,0.524-1.613,0.406-2.16c-1.227-0.59-3.402-1.761-3.517-3.25     c-0.867-0.813-2.744-3.45-3.61-3.699l0.737-1.551l-3.498-2.68c0.263-0.79,0.862-1.298,0.397-2.16     c-0.564-1.049-1.862-1.439-2.495-2.43c-0.661-1.034-0.311-2.428-1.05-3.42c-0.394-0.529-1.428-0.951-1.503-1.65     c-1.005-0.785-1.589-2-2.192-3.091c0.548-1.181-2.052-1.835-2.694-2.29l-0.388-0.93l0.441-0.654     c0.926-1.467-6.279-11.22-2.167-12.768c1.854-0.697,2.856,3.037,5.323,3.648c1.628,0.404,3.866-0.213,5.309,0.385     c1.43,0.593,3.782,2.986,4.592,3.213c0.799,0.223,2.645-0.118,3.121,0.177c0.475,0.294,2.098,4.37,5.43,4.858     c1.416,0.208,1.71-1.581,2.571-1.704c0.782,0.607,2.19,1.757,3.104,2.013c0.826,0.232,15.226,0.795,16.656,0.695     c0.469-0.033,1.535-3.513,2.179-4.15c1.162-1.154,2.842-1.918,4.366-2.473c0.438-1.112-1.053-2.597-0.598-3.041     c0.934-0.911,2.68-0.607,3.828-1.072c0.64-0.258,0.672-1.04,1.253-1.375c1.263-0.728,3.673-0.121,4.138-1.948     c0.39-1.528-1.495-2.611-1.177-4.021c0.17-0.751,0.814-1.484,1.13-2.205l0.204-0.693c0.387-1.963-1.761,0.084-2.429-0.412     c-0.512-0.38-0.112-2.672-0.266-3.354c-0.276-1.221-2.836-1.865-3.65-0.805c-0.651,0.848,0.664,4.806-1.063,4.861     c-1.548,0.05-2.021-3.913-3.008-4.971c-1.816-1.947-4.907-1.161-6.996-2.591c-3.456-2.366-2.113-5.622-3.266-7.846     c-0.396-0.766-3.15,0.856-3.774-1.368c-0.668-2.377,3.181-3.423,1.968-5.321c-1.282-2.009-3.923-0.349-4.573,1.338     c-0.592,1.534-0.427,2.444-2.278,1.378c-5.994-3.451-3.073-8.879-6.669-8.439l-2.307-1.714c-0.702-0.505-3.886-0.462-3.997-1.174     l-0.532-3.963c-0.049-0.363,0.825-0.804,0.552-1.59c-0.797-2.288-4.364-1.268-1.626-5.171c-1.375-2.175-0.437-2.119-2.929-3.993     c-1.166-0.877,0.205-4.252-1.044-5.054c-1.811-1.162-2.935,0.689-4.681,0.344c-0.913-0.182-1.895-1.596-2.66-1.482     c-1.207,1.371-4.257,3.515-6.177,3.369c-4.792-0.365-2.483-5.272-4.462-6.295c-3.715-1.92-3.799,3.795-7.483,0.623     c-1.355-1.167-1.59-3.063-2.823-4.309c-0.931-0.941-2.722-1.35-3.006-2.816c-0.283-1.47,1.353-3.396,0.697-4.633     c-0.549-1.033-2.724,0.153-3.263-1.372l-0.83-2.463c0.167-1.181,2.988-1.606,0.592-2.926c-2.627,2.46-0.87-5.701-0.648-6.127     c1.039-1.999,5.085-2.502,5.942-3.814c0.275-0.421,0.379-5.091,0.42-5.944c0.14-2.883-0.22-4.816-1.316-7.55     c-0.331-0.823-1.008-1.395-1.202-2.29c-0.387-1.78,1.262-3.35-1.641-3.825c-1.006-0.938,0.386-1.938,0.805-2.748     c0.502-0.969,0.02-2.53,0.909-3.241c1.265-1.011,1.78,0.751,2.844,0.901c0.873,0.124,2.316-0.263,3.245-0.323     c1.025-0.685-0.035-2.175,0.986-3.09c1.381-1.234,4.589-3.555,2.757-5.692c-0.481-0.562-1.709-0.171-1.991-0.841     c-0.386-0.915,2.124-4.203,2.854-4.811c1.556-1.298,3.971-0.593,4.446-1.769c0.417-1.033-1.829-4.489-0.163-4.45     c4.923,0.118,1.492-0.9,2.454-3.604c0.313-0.88,1.685,0.126,1.333-2.273c0.546-0.893,1.209-1.847,0.796-2.921     c0.641-2.163,1.984-2.567,3.566-3.794c0.79-0.612-2.094-2.432-0.565-3.732c0.961-0.819,4.328,1.569,4.171-0.965     c-0.179-2.897,1.288-1.714,2.158-3.529c-0.063-0.146,1.943-4.583,2.387-4.88c0.228-0.656-0.96-1.163-0.432-1.938     c0.328-0.479,1.752,0.289,2.359-0.143c1.288-0.916-0.847-1.633-0.997-2.506l1.034-1.319c-1.048-0.586-2.437-1.778-2.153-3.123     c0.34-1.616,1.82,0.358,2.49-0.702c0.567-0.898-0.775-1.699-0.577-2.411c0.217-0.777,1.416-0.579,1.731-1.291     c0.133-0.302-0.279-5.098-0.279-6.492c0-0.726,1.346-1.234,1.087-1.779c-0.304-0.639-1.812-0.369-1.327-1.526     c0.31-0.738,2.374-0.936,2.83-2.163c-0.275-0.849,1.252-0.639,1.699-1.652c0.383-0.867-1.224-1.994-1.51-2.757     c-0.512-1.363,1.361-1.685,1.279-2.951c-0.062-0.945-1.442-1.489-1.174-1.688l0.317-0.905c-3.116-2.129-1.939-0.093-3.365-0.742     c-5.382-2.451-4.552-6.065-11.376-3.419c-1.224-0.477-2.109-1.864-3.481-1.963c-2.456-0.179-4.061,4.768-6.731,3.824     c-1.505-0.532-0.515-4.529-3.914-5.555c-3.352-1.01-3.766,1.945-5.862,3.573c-0.978,0.76-2.166,0.877-3.288,1.296     c-1.005,0.376-0.994,2.832-2.458,3.234c-1.487,0.409-3.134,0.362-4.426,1.326c-1.899,1.416-0.907,3.556-4.329,4.305     c-2.065,0.452-4.995,1.029-7.088,1.143"
   stroke-linejoin="round"
   stroke-width="3.1182"
   stroke="#646464"
   fill="none" />
			
			<path
   id="path30"
   stroke-miterlimit="3.8637"
   d="     M52.384,326.972c-0.513-3.487-2.757-5.827-4.116-8.906c-0.342-0.773,0.137-1.648-0.344-2.409c5.8-6.343,9.293,2.811,13.223,2.077     c4.039-0.754,0.518-3.809,4.998-7.207c3.99-3.026,3.768-1.671,5.957-2.66c0.396-0.179,0.845-1.334,0.515-1.452     c0.734-0.452,1.484-0.906,2.172-1.431l-0.295-1.028l-1.201,0.031l0.039-4.103c-2.114-2.191-2.115-0.574-4.83,0.161     c-0.738,1.843-2.479,0.726-4.029,0.797c-1.155-1.313-3.267-1.859-4.61-3.095l0.164-0.665c3.706-2.809,2.329-0.636,6.078-4.998     c-0.005-1.297-1.383-2.813-0.52-4c-0.203-0.299-0.221-0.796-0.13-1.133c-0.573-0.01-0.658-0.624-0.65-1.055     c0.026-1.407,3.729-1.608,1.17-3.915l-0.876-0.695c-0.546-1.717,4.051-5.96-0.617-7.69c0.444-1.958-1.285-3.353-1.138-4.589     c-1.808,1.6-1.198-2.431-1.247-2.604c-0.551-1.961,1.32-2.653,1.444-4.772c3.276,0.913,5.528,2.801,8.908,3.537     c3.103-3.158,7.189-6.766,8.507-11.118c-1.421-1.043-2.965-1.774-4.587-2.445l0.85-2.298l0.775-0.57l0.474,0.484l1.015-0.368     c0.954,0.095,7.74,5.155,8.294,5.161c1.507,0.017,2.662-0.008,3.98,0.886l1.57-0.092c1.267,0.905,1.69,1.343,3.363,0.502     c0.225,0.201,0.517,0.311,0.412-0.098c-0.224-0.867-0.78-1.674-1.215-2.447l-1.244-2.212c2.774,1.153,0.163-1.859,0.065-2.629     c-0.041-0.323,0.027-0.885,0.556-0.658c0.596,2.026,4.509-0.405,5.647,0.301c0.576,0.356,0.234,1.241,0.234,1.768     c0,0.656,3.164,5.231,3.567,5.851c0.5-0.545,1.002-1.112,1.575-1.581l2.803,2.731c0.817,0.164,1.582-0.103,2.382-0.226     c2.749-0.425,7.021,0.7,9.218,0.091l0.179-1.992l1.081-1.162c-1.301-3.828-2.857-7.277-4.37-11.029     c-1.77-0.155-3.544,0.121-5.312,0.174c-12.117,0.367-19.968-1.171-30.482-7.057c-3.856-2.158-11.687-4.582-14.442-7.531     c-2.388-2.554-1.111-8.045-3.992-9.675c-2.976-1.684-6.377-0.322-9.519-1.157c-1.908-0.508-3.065-2.627-4.596-3.75     c-1.493-1.095-3.364-1.939-4.206-3.697c-0.433-0.904-0.373-1.973,0.117-2.844c2.488-4.416,9.997-0.182,9.323-5.676     c-0.696-5.679-8.028-2.361-6.244-10.986c0.485-2.345-0.16-5.112,1.652-7.022c1.297-1.368,3.729,1.313,4.946,1.81     c3.528,1.44,10.166,0.346,11.108-4.045c1.439-6.696-9.257-5.964-10.495-6.659c-1.813-1.019-0.194-4.197-2.434-4.977     c-3.704-1.288-2.972,1.34-4.868,3.476c-2.489,2.801-7.815,1.697-10.233-0.357c2.163-3.132,2.334-4.457-1.251-5.738l-0.219,0.482     c-8.166-2.159-0.831-3.729-0.457-7.566c3.747,0.643,0.228-2.452-0.854-2.165c0.229-1.477,1.469-2.385,2.404-3.427     c1.451,0.712,3.408,1.638,4.569-0.063c-0.376-0.712-2.403-1.913-2.403-1.913c-0.938-0.587-1.07-1.186-0.572-2.177     c2.317-1.267,8.969,0.174,5.956-4.767c-0.575-0.943-0.463-1.016-1.241-1.838c-2.425-2.561-6.466-1.744-7.478-6.382l2.206-0.42     c1.461,0.853,3.897,2.162,5.481,1.863c1.969-0.372,2.947-4.457,1.227-4.929c-1.373-0.376-1.407,0.445-2.336,0.92     c-0.538,0.274-1.939-0.115-2.588-0.103c-1.836,0.036-4.192-1.07-5.969-0.652c-0.523-0.997-0.65-1.835-0.797-2.942     c4.146-0.984,9.104,1.819,11.785-1.057c0.857-0.92,1.024-1.364,1.001-2.636l-0.565-0.777c-1.514-0.282-2.958,0.11-4.21,0.979     c-0.504-0.538-0.752-1.225-1.208-1.793c-1.167,0.527-2.621,1.358-3.866,1.586c-2.724,0.498-2.233-1.156-4.251-1.897     c-4.342-1.596-10.337-3.552-2.762-7.481c0.472-0.245,2.919,1.878,3.989,1.813c1.903-0.116,3.713-8.535,2.965-9.778     c-2.676-4.446-5.782,0.284-7.441,2.043c-0.425,0.45-2.739,2.018-3.211,1.243c-0.776-1.273,1.066-5.272,1.26-6.827     c0.223-1.787-0.016-3.81-0.104-5.614c1.83,0.649,5.71,1.428,6.467-1.06c0.949-3.123-5.212-2.922-4.764-6.528     c0.356-2.874,5.781-1.176,5.039-5.136c-0.406-0.428-1.276-0.152-1.797-0.503"
   stroke-linejoin="round"
   stroke-width="3.1182"
   stroke="#646464"
   fill="none" />
			
			<path
   id="path34"
   stroke-miterlimit="3.8637"
   d="     M31.909,86.804c0.775-1.05,1.573-2.087,2.48-3.027c2.859,0.351,6.372,1.141,9.122,1.984c1.296-0.684,2.729-1.035,4.11-1.5     c0.264,0.695,0.732,1.282,1.145,1.894l2.252,0.12c-0.653-1.707-1.432-3.411-1.774-5.216l1.26-2.785     c1.137-2.287,11.775-0.942,11.901-1.123c-0.444-2.665-1.478-5.35-2.132-7.985c0.628-1.791,4.936-6.655,6.213-9.181     c1.516,0.623,3.084,0.596,4.706,0.687c1.872,1.872,1.456,6.526,2.041,8.725c0.297,1.115,3.145-0.206,3.031,0.865l6.347,0.331     c-0.273-0.354-0.539-0.831-0.878-1.125c1.578-0.479,3.742-0.299,5.366-0.26l0.641,0.903l7.741-0.376l1.877,1.994l1.008-0.84     l-3.252-4.922c4.277-2.986,8.649-5.773,13.009-8.636c0.599,0.082,2.356,2.981,2.748,3.621l1.332-0.78     c0.672-0.39,4.296-1.415,4.356-1.475c0.594-0.585,0.801-1.472,1.28-2.141c1.769-2.464,4.515-4.184,6.952-5.892     c-0.021-0.667-0.055-2.338-0.335-2.936c0.646-0.981,2.216-0.918,2.532-2.323l0.799,0.248c2.306-1.057,4.803-2.21,6.675-3.97     l-3.123-2.874l-0.901-1.856l2.368-2.242l1.615,0.909c1.77-1.372,3.575-2.688,5.318-4.096l0.081-1.805     c3.755-2.068,5.135,1.089,7.677,0.334l3.79,0.747l4.759-4.504c0.235,0.231,2.04,1.815,1.412,0.982     c0.648,0.517,3.346,2.034,2.673,0.675c0.564-0.53,1.258-0.949,1.905-1.37c1.073,1.252,3.618,4.253,4.89,4.561l0.987-0.313     c1.782,1.261,2.288,3.681,3.998,5.015c1.25,0.976,6.495,1.004,9.532,4.233c1.926-1.829,4.006-2.55,5.538-4.885     c3.974,0.306,10.164-2.945,13.154-5.895l4.034,0.017c1.021,0.004,9.055-0.238,9.168-0.183c1.303,0.646,1.613,2.284,1.728,3.593     c0.505,5.763,2.039,2.891,4.97,2.875l0.709,0.456l0.107,0.403c1.39-1.182,4.668-9.432,6.895-6.821l-0.369,0.542l0.359,2.015     c0.037,0.178,4.632,3.638,5.1,3.589l-0.02,0.534c0.902,0.687,5.684-2.256,6.735-2.805l0.366-0.682l4.191,3.667l0.421,1.931     c1.327,1.366,2.631,0.215,3.713,2.563c0.817-0.395,1.56-0.924,2.37-1.33c0,0-0.203,1.251,0.766,2.004     c0.479-0.69,1.037,0.555,2.306,0.906"
   stroke-linejoin="round"
   stroke-width="3.1182"
   stroke="#646464"
   fill="none" />
			<path
   id="path36"
   stroke-miterlimit="3.8637"
   d="     M253.685,42.575c0.374-0.086,2.7-0.529,2.288,0.105l-0.692,0.28c-0.259,0.549-1.191,0.587-1.71,0.593     c-0.535,0.513-0.296,1.115,0.162,1.575c-0.422,1.1,4.648,4.045,5.66,4.366c-0.169,0.706,0.764,2.292,1.312,2.761l-0.221,0.452     c1.818,1.874,3.978,3.546,5.688,5.443l-0.663,0.279l-0.678,1.311c1.129,2.688,2.438,5.304,3.39,8.063l-0.707,0.203l-0.104,1.014     l-0.692,0.094c2.337,3.007,6.047,5.495,9.056,7.815c2.262-0.412,4.519-0.854,6.798-1.158l5.947,3.815     c1.54,4.782,2.722,9.263,5.173,13.705l5.419-1.778l-0.51-1.318l3.625-0.979c0.55,1.914,0.941,3.87,1.529,5.774l-0.51,0.199     l0.283,0.959l-0.15,0.52l0.812,1.698l2.114-0.561c0.246,0.758,0.533,1.503,0.718,2.278l2.021-0.479l7.892,7.871     c-0.63,1.264-1.046,2.618-1.548,3.936l0.66,0.938l0.378-0.14l0.907,3.196c0.986-0.299,1.994-0.521,3.002-0.739     c0.988,2.181,1.578,4.527,2.113,6.853l-0.642,0.14l0.378,1.458l0.661-0.159l0.597,2.352c0.927-0.454,1.624,0.291,2.5,0.066     l0.209-0.4c3.158-1.15,5.577-0.778,8.826-0.621c0.684-2.46,1.223-4.958,1.92-7.413l6.133,2.562     c-0.369,1.986-0.838,3.976-0.938,6.001l-1.299,0.182c-1.446,3.309-0.811,6.956-1.17,10.444l0.217,0.51l-0.964,2.832l1.121,1.173     c-0.384,2.298-0.421,3.299,0.519,5.484c-5.085,4.524-2.121,5.12-6.521,10.266c0.414,2.194,0.771,4.423,0.855,6.657     c1.194-0.375,2.41-0.675,3.616-1.007c0.827,1.479,2.192,2.812,3.171,4.246l-0.35,0.549l2.049,3.227l-0.566,0.345     c0.54,1.133,1.301,2.143,1.988,3.188c-0.211,0.106-0.774,0.319-0.928,0.471c-0.344,0.339-0.691,0.997-0.977,1.403     c-2.755,3.928-4.414,4.105-8.425,6.236c0.364,0.749,0.265,2.717,0.265,2.717l0.049,1.887c7.075,0.367,9.411-1.729,15.656,3.532     c0.847,0.713,1.752,3.633,2.073,3.864c0,0-2.002,1.672-2.398,2.346l0.108,0.881c0.665,0.748,3.749,3.4,4.713,3.073l0.783,0.446     c1.023-0.142,2.057-0.168,3.086-0.229c0.158,0.751,0.413,1.478,0.614,2.218c0.357,0.081,0.763,0.274,1.024,0.536     c-0.172,0.421-0.061,2.868-0.061,2.868l0.182,1.378c0.921,0.126,1.855,0.185,2.783,0.203c0.056,0.945,0.338,1.886,0.41,2.845     c1.655,1.327,3.186,2.396,5.026,3.531c1.228,0.758,0.042,3.513,4.476,3.551l1.064,3.884c2.581-0.401,5.135-0.968,7.661-1.632     l-0.319,4.372c0.984,0.061,2.164-0.715,2.997-1.182c0.769,1.663,1.666,3.239,2.519,4.859l2.589-1.106     c0.765,0.357,1.756-0.815,2.554-0.845l2.713-0.056c0.461-0.584,0.924-1.167,1.473-1.671l-0.745-0.882     c0.728-0.551,1.379-1.234,2.004-1.895c0,0,1.835,0.396,2.271-0.113c0.254,0.418,0.75,0.794,1.205,0.957l-0.035,1.107     c-1.221,0.745,1.15,5.005,1.225,6.436c0.821,1.056,1.998,1.719,2.908,2.684l-1.047,2.402c0.852,1.101,1.613,2.281,2.607,3.265     l0.691-0.451c4.082,0.526,6.162,4.462,8.565,5.086l0.834-0.845l-0.054-0.338l1.667-1.876c1.345,0.81,4.575,0.676,4.575,0.676     l0.834,0.882c0.644,0.319,2.182,0.788,2.182,0.788c1.327,0.51,2.318,1.624,3.387,2.515c0.498-0.301,0.984-0.625,1.508-0.883     c1.362,0.611,2.769,1.121,4.149,1.689c0.434-0.758,0.959-1.472,1.276-2.289l1.153,0.807l1.188,1.575     c2.012,0.045,2.721,3.289,3.865,3.772c2.079,0.879,4.471,1.43,6.636,2.109c0.72,1.243,0.827,3.893,2.107,4.608l0.567-0.076     c0.805,0.402,1.566,0.618,2.43,0.244c1.015,1.627,3.011,5.556,2.021,7.412c-1.199,0.714-3.318,2.401-4.403,2.865     c-0.948,0.404-2.173-0.619-2.85,0.587h-0.443c-0.521,0.862-0.318,2.065-1.206,2.722c-0.832,1.938,1.084,2.608,1.845,4.053     c-0.612,0.459-1.579,1.248-1.614,2.063c-1.237,0.982-2.276,2.99-2.749,4.484c-0.866,0.007-2.304,2.261-0.939,2.552     c0.28,0.834,0.708,1.607,0.993,2.439c-1.747,0.609-3.695,0.778-5.355,1.613l-0.55-0.356c-0.795-0.142-1.64-0.052-2.377-0.432     l-0.674,1.52l-1.632,0.808c0,0-2.674-0.276-2.979,0.056c-0.735,0.018-1.44,0.779-1.614,1.37c0.49,1.033,1.382,2.15,2.199,3.321     l0.904,0.957c0.856,0.188,3.038,1.819,3.831,2.344l1.4,1.294l-1.17,1.764c1.476,1.606,3.346,2.789,5.143,3.997l1.117-0.395     c4.57,0.961,7.933,2.843,11.883,5.441c1.287-0.999,3.41,0.955,4.469,1.613l-0.053,0.488l1.027,1.07l-0.354,1.388     c0.372,0.878,1.131,1.671,1.294,2.627l-0.23,0.45c0.399,0.656,0.36,2.569,0.425,3.396c-2.803,0.903-5.116,1.32-7.944,1.951     c-0.431,0.755-1.218,1.108-1.791,1.727c-0.552,0.094-1.168,0.101-1.72,0l-0.887,0.582c-0.853-0.19-3.166-0.509-3.831,0.131     l-0.089-0.525l-1.152-0.656l-1.277,0.112c0.226,0.567-0.68,0.808-1.028,1.163c-0.472-0.017-0.7-0.312-1.206-0.188     c-1.899-1.295-1.922,0.116-3.617,0.15l-0.23,0.356c-0.997,0.049-2.229-0.49-2.944-0.413l-0.675,0.789     c-0.605-0.254-2.518-0.282-2.518-0.282c-0.442,0.621-0.664,2.14-1.171,2.421l-0.018,0.994c0,0-0.283,1.37-0.461,1.801     l-0.815,1.164l1.489,1.557c0,0-0.655,0.749-0.993,0.976c0.009,0.468,0.149,0.959,0.408,1.352c7.131,3.16,3.289,8.346,6.295,9.756     c4.815,2.259,24.505-1.228,30.787,4.241c0.617,0.537,1.355,2.098,1.738,2.852c0.73,1.442,1.955,3.529,2.195,5.104     c0.64,4.2-1.614,13.011,3.671,15.076c2.256,0.882,5.596-1.842,8.306-1.673c2.181,0.136,3.491,2.394,5.67,2.596     c2.581,0.24,4.762-1.511,7.287-1.635c3.421-0.167,4.45,1.369,7.323,2.02c1.55,0.351,2.997-0.719,4.544-0.654     c2.782,0.117,5.287,2.119,7.814,2.23c3.98,0.177,2.965-1.946,7.215,1.001c2.939,2.038,5.68,0.974,8.904,1.461     c2.654,2.263,0.967,3.357,2.271,5.575c0.76,1.291,2.151,1.937,3.07,3.076c0.495,0.613,0.908,1.558,0.764,2.346     c-0.285,1.541-0.605,5.981,0.527,7.134c0.489,3.643,3.551,3.807,5.852,5.884c1.801,1.625,1.145,2.657,2.035,4.518     c0.968,2.02,1.925,1.974,3.482,3.249c4.361,3.573,3.369,3.838,9.379,3.963c5.659,0.117,3.838-5.918,6.307-8.545     c1.387-1.476,1.57-3.633,2.383-5.404c2.055-4.475,5.67-8.556,7.818-12.883c1.229-2.477,1.079-5.356,2.179-7.493     c0.322-0.626,1.198-0.245,1.648-0.678l2.084-2.002c2.335-2.245-2.141-2.704,5.243-7.955c1.544-1.098,4.347,1.949,9.116-0.965     c6.782-4.145-0.123-5.396,12.472-8.113c2.823,1.358,15.025,15.214,18.492,18.559c0.914,0.881,2.216,1.195,3.263,1.878     c8.707,5.68,9.738-2.441,13.444,3.812c1.331,0.61,2.931,0.537,4.177,1.347c1.314,0.854,1.784,2.703,2.851,3.832     c5.068,5.364,9.354,9.295,0.628,12.896c-1.943,0.803-3.783,2.359-5.97,2.409c-3.841,0.088-8.083-9.763-16.6-7.795     c-7.733,1.786-2.072,8.4-8.354,15.118c-4.816,5.152-12.132-2.914-13.429,2.428c-0.575,2.371,0.161,2.75,0.869,4.867     c1.395,4.169,3.318,3.893,5.999,6.555c0.498,0.494-0.035,7.57,0.287,8.994c0.248,1.093,1.2,1.833,1.609,2.855     c0.882,2.205,0.954,4.886,2.27,6.902c0.912,1.398,2.292,2.37,3.343,3.649c0.804,0.979,1.161,2.212,1.895,3.233     c1.174,1.637,3.245,1.772,5.04,2.231c2.014,0.515,3.979,1.318,6.06,1.531c7.143,0.731,9.564,1.396,9.563,9.475     c-1.93,1.526-2.927,5.69-1.598,7.765"
   stroke-linejoin="round"
   stroke-width="3.1182"
   stroke="#646464"
   fill="none" />
			
			
			<path
   id="path42"
   stroke-miterlimit="3.8637"
   d="     M641.532,471.231c-0.687,0.305-1.028,0.031-1.745,0.309c-0.298,0.43-0.887,1.088-1.417,1.241l-1.452,0.966     c-0.721,1.127,0.145,1.936-1.75,3.189c0.689,0.051,1.34,0.402,0.929,1.177c-0.969,1.825-1.001,1.847-1.001,1.847     c-0.112,0.965-1.93,0.174-1.365,0.898l-2.361,1.608c0.296,0.262,0.561,0.634,0.709,0.999l1.732,0.703     c-0.221,0.646-0.459,1.829-0.252,2.512l-0.756,0.199c-0.66,1.775-2.132,7.331-1.793,9.144c0.395,2.114,0.992,0.138,1.365,4.158     l-0.141,1.575c-1.176,0.698,0.379,1.447,1.017,1.656c-0.88,0.758-1.094,1.115-0.528,2.173c-1.963,0.388-4.232,0.087-6.252,0.297     l-0.244,1.669c-1.195,0.438-2.647-1.318-3.763-0.348c-1.063,0.924-3.863,0.244-4.282,1.465l1.736,1.694l0.244,1.825     c-0.439,0.379-0.672,1.297-0.692,1.843l-1.292,1.109c-2.221,1.492-5.479-0.381-7.656-0.118c-1.027,0.123-1.648,1.136-2.684,1.238     c-1.317,0.131-2.559-0.558-3.893-0.292l-0.176,1.31c-1.367,0.551-6.438,0.77-4.87,2.602l-0.535,2.908     c0.022,0.324,0.149,1.45,0.591,1.578c-0.672,2.051,0.665,3.934-0.929,7.045c-0.161,0.314,0.618,1.535,0.408,2.17     c-0.515,1.558-4.877,1.118-2.45,4.943l-0.173,0.735c0.836,1.059-1.945,12.985-2.051,15.218c-0.09,1.906-2.112,4.002-3.078,5.277     c-0.137,0.18-0.468,2.467-0.535,2.834c1.77,4.227,3,8.028,6.11,11.41c0.387-0.001,0.872-0.038,1.243,0.104     c-0.654,2.066,0.005,5.033-0.983,6.531c0.139,0.538,0.624,1.022,1.01,1.402c0.471,2.071,0.869,4.017,0.896,6.121     c0.008,0.557,1.636,2.031,1.988,2.613c0.377,0.621,0.163,0.969,0.85,1.5c0.686,0.53,1.643,0.541,2.327,1.059     c1.148,0.865,1.567,2.322,2.983,3.204c0.892,0.556,2.056,0.145,2.954,0.638c1.121,0.613,0.823,1.5,1.14,2.525     c2.441,1.205,0.871,3.332-0.438,4.625c1.785,2.318,2.499,4.899,0.957,7.396c0.069,0.793,0.749,1.48,1.417,1.849     c0.351,0.852-1.078,2.676-1.194,3.574c-0.428,3.303,1.987,4.249,2.263,6.547c0.229,1.91-0.436,3.153,0.531,5.262     c0.135,0.295,0.939,1.09,1.176,1.4c0.331,0.434-0.124,1.213,0.813,2.139c1.905,1.882,0.358,1.609,1.126,3.314     c0.293,0.651,0.999,2.974,1.786,3.618c0.829,0.68,1.953,1.159,2.854,1.8c0.309,0.219,2.624-1.03,3.494-0.375     c1.353,1.02,2.243,3.578,2.347,5.171c1.609,1.739,3.83,2.04,6.066,2.666c0.545-0.149,1.004-0.587,1.381-0.987l3.68,1.531     c-0.021,2.539,1.549,2.268,1.187,5.113c3.68,4.274,2.228,0.289,5.055,2.207l3.699-0.5c0.289-0.039,1.811,1.451,2.268,1.658     c0.601,0.27,1.269,0.039,1.854,0.4c1.297,0.805,1.607,1.49,3.254,2.152c0.055,3.922,0.082,2.291,2.187,4.352     c1.156,1.132,1.807,2.662,2.986,3.836c1.222,1.215,3.542,0.873,4.394,2.4c1.738,3.118-1.124,2.496,3.002,7.558     c0.103,0.931-0.566,1.79-0.284,2.725c1.011,3.343,2.024,1.216,2.981,2.479c0.359,0.477,0.521,0.94,1.076,1.268l0.078,2.693     c0.011,0.383,3.428,5.053,4.058,5.472c0.608,1.585,0.319,1.448,2.118,2.351c2.33,1.17,3.528,2.201,5.475,4.155     c3.678-2.188,5.299,0.466,6.477,0.03c0.93,0.756,2.453,1.98,3.58,2.301c0.16,0.331,0.172,0.783,0.141,1.141     c-0.668,0.697-2.977,3.787-3.196,4.602c2.14,0.963,1.671,3.291,1.274,5.335c0.777,1.395-0.77,3.491-1.471,4.651     c0.119,3.896-3.097,4.213-5.381,6.724c-2.176,0.413-3.968,0.991-5.408,2.776c-0.053,1.707-1.623,4.236-1.518,5.504     c-1.713,0.795-1.641,2.35-1.668,3.978l-3.497,2.093c-5.052,2.926-4.391,6.719-5.355,7.381c-1.36,0.932-5.238,2.396-6.934,2.955     c-3.63,1.198-0.488,7.906-2.508,8.354l-0.578-0.276c-3.14,1.36,1.785,2.728-0.579,6.694c-0.527,0.135-1.131,0.517-1.193,1.105     c-0.639,0.318-1.09,2.219-1.232,2.912c-0.881,0.523-0.785,0.645-1.139,1.561c-0.844,2.19-4.646,1.375-6.485,2.922     c-0.595-0.365-1.052-1.056-1.446-1.619c-0.545,0.268-1.777,2.705-3.331,3.86l0.187,0.563c-1.018,2.136-1.679-0.302-1.922-1.372     c-0.772-0.497-1.369-1.268-2.203-1.668c-2.032-0.979-2.586,2.583-4.92-1.202l-1.043-1.662c-1.674-0.429-2.741,1.701-3.62,0.129     l-2.175,0.622c-1.527,4.405-1.823,0.932-1.604,6.318c-1.526-1.854-6.429-2.483-5.683-5.193c-0.996,0.862-2.098,1.537-2.791,2.695     c-0.4,0.67-0.687,1.396-0.59,2.188c0.023,0.195,0.264,0.994,0.096,1.141c-2.248,1.969-3.553,2.113-4.539,3.016     c-0.564,0.518-3.008,3.997-3.827,3.183l-0.55-0.571c-0.637,0.465-3.273,2.189-4.097,1.92l-0.326,0.572     c0.2,1.219-0.042,2.533,0.214,3.686c0.249,1.116,1.318,0.381,1.603,2.118c2.536,1.647,0.011,3.372,4.115,6.512     c0.101,3.816,3.632,3.997,4.247,6.366c-0.762,1.177-1.194,2.334-0.809,3.736l-1.673,0.295c-0.407,1.471-0.564,1.525-1.701,2.479     c-0.18,0.786-0.335,1.696-0.743,2.399c1.273,1.384-1.02,2.291-2.102,2.41c-0.244,1.282,1.916,1.734,2.705,2.891     c-0.516,2.24-0.792,3.386-2.686,4.85c0.354,0.41-0.771,1.889-0.771,1.889c1.174,1.111,3.279,0.725,1.645,3.255l-0.976,0.157     c0.282,0.549-1.2,6.426-1.469,7.74c0.3,0.602-0.894,1.508-1.282,1.84c-0.477,1.629-0.055,3.583-0.359,5.232     c-0.081,0.434,0.341-0.077,0.461-0.128c1.029-0.435,4.079,0.397,4.723,1.249c3.382,4.483,10.424,8.807,13.36,13.658     c-1.073,1.371-0.282,3.352,0.734,4.525l-0.407,0.833c-3.914,6.605-1.533,4.278-3.62,10c-0.196,0.54,0.855,0.854,0.214,2.048     c0.204,0.784-0.661,1.342-1.074,1.87c-0.743,0.949-0.901,1.636-0.898,2.782c0.011,3.846-2.477,1.385-4.311,1.386     c-1.262,0.001-1.266,0.858-2.894,0.45c0.157,0.629,0.4,1.244,0.638,1.848c-0.609,2.995-2.31,1.123-2.219,3.59     c-3.058,4.265,1.139,4.438-2.32,8.654c-1.922-0.067-2.539,1.896-3.281,1.907l-1.358-2.367c-0.667,2.205-2.401-0.034-3.245,0.284     c-0.247,0.422-0.502,0.866-0.665,1.33c-2.011-0.08-1.548,1.232-3.697,0.646l-1.774-0.118c0.143,0.677-0.623,2.213-0.959,2.746"
   stroke-linejoin="round"
   stroke-width="3.1182"
   stroke="#646464"
   fill="none" />
			
			<path
   id="path46"
   stroke-miterlimit="3.8637"
   d="     M306.207,998.346c0.381,0.963,3.783,5.399,4.658,5.557c2.467-2.185,6.591-8.457,9.2-2.68c1.351,2.988,1.128,0.502,3.274,0.416     c1.275-0.948,2.397-1.754,3.816-2.447c0,0,1.531-0.475,2.066-1.059c0.38-0.416,0.088-1.998,0.435-2.671     c0.646-1.256,1.298-0.719,1.965-1.418c2.751-2.889,1.008-3.636,5.599-5.575c0.184-0.579-1.082-0.993-1.4-1.25     c-1.076-0.865-3.169-2.947-3.501-4.283c-0.211-0.85,2.637-1.717,1.948-3.266c-0.844-1.898-1.572-3.645-2.863-5.236     c-0.137-0.17,0.039-8.684-0.172-9.764c0.6-1.385,2.063-2.264,2.507-3.732c-0.54-0.554-1.232-1.521-0.937-2.332     c1.729-0.801,3.174-2.58,4.363-4.101c-0.213-0.284-0.307-0.759-0.23-1.104l1.258-1.504c0.639-0.193,1.104,0.237,1.701,0.35     c1.114,0.209,2.729-0.359,3.861-0.551c2.225-0.375,1.957-3.074,2.865-3.281c1.02-0.231,1.156,0.361,2.479-0.197     c2.859,0.969,4.293,1.225,6.072-1.018c0.793-1,3.294-2.633,3.035-3.918c0.32-0.324,0.654-1.034,0.559-1.504l1.152,0.156     c0.821-0.539,1.832-2.029,2.656-2.316c1.289-0.449,2.661,0.439,3.975,0.227c1.098-0.178,0.6-0.855,2.402-0.646     c1.354-0.991,3.251-1.092,4.226-2.465c0.885-0.301,1.869,0.002,2.729-0.425c0.475-1.081,1.844-2.067,2.658-2.983l0.764,0.057     c1.019-0.936,1.356-2.398,2.12-3.515c0.788-1.152,2.164-1.089,3.252-1.772c0.811-0.509,3.428-3.82,3.759-3.835     c0.828-0.038,1.579-0.023,2.409-0.204c0.403,0.407,0.402,0.973,1.005,1.195c1.199,0.445,5.446,0.299,6.476,1.113     c0.479,0.377,0.398,2.027,0.555,2.641c0.308,1.202,1.448,0.627,1.151,2.408c0.424,0.337,0.69,1.182,0.773,1.685l1.649,1.513     c0.379,0.367,0.822,2.547,1.157,3.216c0.522,1.045,2.744,2.501,2.714,3.62c-0.035,1.26-0.569,2.904-0.527,4.018     c0.06,1.559,1.541,1.8,1.437,3.693c2.696-0.623,2.321,0.543,4.34,0.908c0.567,0.102,1.936-0.754,3.546-0.568     c1.485-1.563,1.604-2.027,3.812-1.953c0.111-0.798,1.497-0.418,1.875,0.268c0.301,0.547,2.61-0.867,2.783-1.369     c-0.475-0.693-1.119-3.313-1.657-3.126c-0.696-1.377,0.312-1.228-1.388-2.62c0,0-0.836-1.42-1.021-1.877l1.079-0.698     c0.573-1.468,1.342-2.405,2.3-3.63c0.037-0.926-0.846-1.137-0.323-2.244c0.685-1.451,2.172-2.286,2.666-3.913     c0.315-1.036-0.65-2.114-0.328-2.829c1.17-2.598,1.606,1.802,3.226-2.392c1.129-2.922,2.027-1.397,3.198-2.954     c1.005-1.338-0.045-1.178,2.044-3.168c-0.711-1.654,3.703-1.672,4.01-1.586c1.424,0.396,2.738,4.952,5.132,4.069     c3.071-1.133-1.187-5.366-1.019-6.342c0.16-0.933,1.54-1.664,1.869-2.545c0.285-0.765-1.826-2.081,0.157-2.177     c1.128-0.056,1.229,1.752,2.89,1.301c1.705-0.465-0.727-1.82,1.898-2.357c1.552-0.318,1.265,1.236,2.173,1.889     c0.592,0.426,1.957-0.742,2.896,0.042c1.825,1.523,1.847,8.241,4.428,7.153c1.091-0.46,1.709-2.658,3.039-0.599     c2.008-0.091,4.997-6.684,7.292-2.728l2.144-0.938c1.124,0.544,2.593,0.765,3.605,1.436l0.279,0.666     c0.832,0.231,2.847-0.063,3.338,0.205c1.532,0.839,5.205,1.557,5.795,3.125c0.236,0.629,1.009,0.93,1.56,0.467l0.2-1.292     c1.495-0.171,2.407-4.073,3.739-5.636c1.087-0.306,4.608,2.003,5.678,1.197c1.046-0.788,1.05-3.566,1.794-4.445     c2.544-0.189,2.663-2.158,2.886-4.258c4.359,2.847,3.647,1.396,5.971-1.774c0.354-0.483,0.938-0.706,1.173-1.286     c0.333-0.82-0.549-3.143,0.931-3.283l1.116-0.027c2.724-0.053,4.125,4.871,4.839,3.363c0.912,0.359,0.723,2.098,3.313,1.828     c1.134-0.119,5.121-1.045,5.451-2.234c0.488-1.765-0.273-6.748,1.717-7.289l0.613,0.201c0.412,0.646,5.193,4.152,6.043,4.142     c0.324,0.521,2.32,0.976,1.99,1.47l1.508,0.969l0.222,0.77c1.581,0.631,2.694,2.846,3.872,2.846c1.129,0,1.035-2.688,2.941-2.012     c0.572,0.203,2.771,4.033,3.563,0.922c1.26-0.044,2.556,0.175,3.808,0.301c0.521-0.509,0.948-1.683,1.231-2.372l1.162,0.455     c0.735-0.177,0.879-1.569,1.604-0.568c1.965,2.712,3.168-0.179,3.84-2.159c0.895,1.189,2.275,0.693,2.723,1.846l0.732,0.494     l1.439-1.998c1.613,0.243,0.742-2.166,1.231-2.927c0.672-0.272,3.565-1.935,3.65-0.628l3.96-0.273     c0.382-0.026,2.466-1.875,2.178-2.271c-0.56,0.137,0.039-0.771,0.436-1.336c0.16-2.791,0.965-1.393,2.512-2.909     c0.664,0.155,0.943,1.274,1.455,1.185c1.762-0.307,0.29-2.885,6.115-2.873c-1.091,0.494-1.437,1.129-1.803,2.232     c-0.34,1.023-1.554,2.133-0.947,3.333c0.799,1.579,5.375,4.655,6.701,6.487c0.147,0.205,0.67,0.258,0.891,0.315     c1.211,0.314,2.279,0.878,3.246,1.677"
   stroke-linejoin="round"
   stroke-width="3.1182"
   stroke="#646464"
   fill="none" />
			
			<path
   id="path50"
   stroke-miterlimit="3.8637"
   d="     M306.207,998.346c-0.003-3.17-2.127-6.025-3.039-8.978l1.328,0.032c1.512-1.135,1.081-3.808,3.777-2.749     c0.891-1.337,0.291-0.829,1.726-1.92c1.004-0.764,1.753-7.5,1.019-8.71c-0.872-1.438-1.8-1.458-2.361-3.451     c-0.637-2.262,0.014-4.714-1.953-6.676c-0.075-8.448-2.162-5.275-4.221-8.646c-1.038-1.699-1.576-3.564-2.484-5.298     c-0.186-0.354,1.733-2.327,1.685-3.404c-2.334-3.239,0.515-3.023,0.426-5.325c-0.077-2.004-3.119-3.666-1.547-5.727     c-0.574-1.062-1.79-1.783-2.398-2.836c0.393-0.512,0.418-1.151,0.033-1.665c-1.969-2.624-1.962-8.167-3.198-10.054     c-0.747-1.139-1.154-1.392-1.521-2.828c-4.208-1.395-1.154-3.098-3.816-4.477c-0.855-2.063-1.928-0.78-2.685-3.83     c-1.133-0.869-2.107-1.824-3.191-2.725c-0.404-0.336-1.586-0.332-2.234-0.922l-2.314-0.201l-0.524-0.999     c-0.987-0.199-2.499-0.062-3.257-0.833c-0.6-0.61-0.802-3.501-1.888-3.105l-0.458-0.104c-0.504-0.706-4.593-1.94-5.551-2.15     c0.203-0.288,0.159-1.248,0.184-1.607c-0.501-0.535-0.834-1.204-1.344-1.727c-0.873-0.213-0.844-0.637-1.2-0.749     c-2.687-0.851-4.04,4.074-6.192,2.06c-0.433-0.405-0.789-0.309-0.977-0.984c-1.488-0.87-5.095,2.053-6.036,0.033     c-0.535-0.308-1.187,0.008-1.639-0.491c0.36-1.853-0.198-4.097-1.998-4.985c0.595-0.514,1.289-0.894,1.894-1.395     c-0.03-1.146,0.023-2.236,0.196-3.369c-0.688-1.158-0.431-1.732-0.838-2.767c-0.778-0.38-5.396-4.208-5.356-4.644     c0.53-0.393,0.533-1.085,0.706-1.654c0.303-0.997,2.482-0.469,2.188-2.742c-0.114-0.877-0.98-2.94-1.502-3.598     c-1.748-0.158-1.276-1.883-2.036-2.473c-2.171-1.687-2.793-0.063-1.165-3.062c0.38-0.7-1.709-2.171-2.111-2.626     c-0.75-0.848-0.311-2.084-0.617-3.076c-1.087-0.918-1.609-1.482-2.235-2.785c0.296-0.445,0.257-1.08,0.095-1.568     c-2.24-0.655-8.354-4.87-10.831-5.954c-0.538-1.369-0.762-1.94-1.795-3.074c0.06-1.196-0.733-1.481-1.56-2.097"
   stroke-linejoin="round"
   stroke-width="3.1182"
   stroke="#646464"
   fill="none" />
			
			<path
   id="path54"
   stroke-miterlimit="3.8637"
   d="     M87.041,626.76c-1.982,4.082,0.519,4.209,0.316,5.746l-0.569,4.287c0.849,0.583,1.451,1.801,2.19,2.549     c1.638,1.658,4.063,2.193,5.738,3.813l0.592-0.104c1.281,0.836,2.619,1.901,3.975,2.583c0.692,0.349,1.752-0.203,2.059-0.011     c2.753,1.718,5.732,3.421,8.41,5.201c1.657,1.103,3.621,4.562,5.268,5.133c2.039,0.708,4.579,0.396,6.33,1.843     c0.809,0.668,0.554,1.947,0.7,2.861c0.179,1.117,1.263,1.924,1.413,2.896c0.117,0.758-0.239,1.561-0.384,2.294     c1.066,1.981,1.626,1.106,2.596,2.085c0.803,0.811,0.927,2.264,1.457,2.781c0.892,0.871,2.792,1.096,4.227,2.225     c1.115,4.166-1.798,9.693,2.277,13.475c6.153,5.707,6.113,2.106,8.914,3.764c0.801,0.475,7.27,9.871,7.523,11.135     c0.252,1.258-0.162,3.912,0.985,4.727c3.914,2.777,11.474,1.074,16.108,1.472c1.45,0.124,1.92,1.216,3.143,1.668     c2.754,1.019,5.764-2.03,5.377,3.777c-0.026,0.396-0.337,0.946-0.635,1.193c0.193,0.921,2.423,2.339,3.241,2.804l0.635,1.345     c4.466,2.024,3.731,4.946,4.929,5.41c0.845,0.327,1.78-1.392,3.712-0.997c1.059,0.217,1.677,1.252,2.705,1.554     c1.91,0.56,10.445,2.609,11.914,2.213c0.965-0.26,1.577-1.154,2.508-1.472c0.414,0.865,0.368,1.861,0.756,2.734     c3.413,7.699,4.444,7.13,10.961,11.528c0.996-0.02,1.624,0.86,2.508,1.159c0.946,0.32,1.99,0.157,2.957,0.383l0.537,0.996     c-0.288,0.844-6.32,4.811-6.089,6.221c0.914,0.426,4.698-1.699,5.936-1.656c1.479,1.408,3.203,1.863,2.649,4.264l1.063,0.418     c0.152,0.736,0.064,0.527,0.657,0.648c2.513-1.121,2.8,1.777,3.712,1.772c0.358-0.994,1.632-1.415,2.267-2.642     c1.008-0.563,3.11-0.254,3.11-0.254l0.668-0.023l0.23,0.776c2.41,0.251,2.537,1.201,4.216,2.561     c2.106,1.706,2.644,0.627,3.636,1.019c1.053,0.416,1.402,2.09,2.508,2.781c1.747,1.094,3.971,0.833,5.771,1.795     c1.536,0.821,2.302,1.934,4.228,1.831c4.544,4.435,3.427,0.372,6.57,0.464c0.322,0.244,0.473,0.673,0.492,1.066     c0.703,0.346,1.852-0.186,2.617-0.268c-1.471,1.913,0.528,4.007,0.317,5.943c-0.206,1.902-0.893,4.035-1.16,5.967     c-0.139,1.002,0.748,2.326,0.897,3.35c0.221,1.505-0.7,1.994,0.997,3.115c0.129,0.554-0.093,1.382,0.525,1.703l-0.021,0.464     c-0.55-0.274-1.479-0.241-2.059-0.14c-0.67-0.898-1.188-0.892-2.245-0.752l-1.84,1.518l0.143,0.742     c-0.629,0.367-1.815,1.046-2.278,1.621c-0.555-0.231-2.104-1.135-2.212-1.83c-2.076,0.172-4.077,1.787-6.034,2.571     c-0.333,0.134-1.397,1.886-2.179,2.387l0.132,1.228c-1.074,1.75-2.138,3.359-4.457,2.896c0.521,2.072,2.503,5.389-0.8,2.92     c-0.604,0.238-1.212,3.533-1.336,4.264c-1.082,0.115-1.419-0.317-2.365-0.475l-1.764,0.243c-1.337,0.239-2.712,0.524-4.073,0.579     c-1.381-0.648-2.504-1.971-4.041-2.271c-1.304-0.254-0.717,1.133-2.059,0.289c-0.543-0.342-0.647-1.067-1.183-1.437     c-0.594-0.408-2.941-0.813-3.833-1.205c-0.935-0.411-1.551-1.254-2.431-1.668c-2.852,0.892-4.698,4.031-6.144,3.291l-0.964,0.498     l-0.908-0.197c-2.099,4.261-4.832,2.469-5.421,5.828c0.499,0.388,0.774,0.99,1.324,1.32c-0.224,1.422-0.703,1.688-0.24,3.21     l-2.541,0.788c0.651,0.882,0.836,1.29,0.668,2.341l1.26,0.22c0.689,1.846-0.467,3.529,2.705,3.36l-0.165,1.333     c2.277,0.811,6.157,0.378,7.567,0.73c1.442,0.359,3.175,3.537,6.91,4.043c0.185,0.618,1.176,1.238,1.755,1.377     c0.463-0.044,0.999-0.016,1.407,0.227l-0.334,1.431c-3.33,2.294-2.428,3.513-3.49,4.433c-4.713,4.08-0.349,7.051-0.072,11.715     c0.055,0.91-1.872,3.438-1.227,4.879"
   stroke-linejoin="round"
   stroke-width="3.1182"
   stroke="#646464"
   fill="none" />
			
				
			
				
			
				
			
				
			
			
				
		</g>
	</g>
</switch>
<g
   id="g4721"
   class="circle-star"
   transform="translate(-106.18025,-237.19298)"><circle
     r="20.665857"
     cy="409.8447"
     cx="323.84766"
     id="path4711"
     style="fill:#0353a4;fill-opacity:0;stroke:#0353a4;stroke-width:3.15968513;stroke-miterlimit:4;stroke-dasharray:none;stroke-opacity:1" /><path
     inkscape:transform-center-y="0.73453349"
     inkscape:transform-center-x="0.88129833"
     d="m 339.5868,416.84876 -11.09552,-0.30147 -6.53857,8.96931 -3.14199,-10.64563 -10.55085,-3.44688 9.15367,-6.27788 0.0178,-11.09961 8.79927,6.76569 10.56184,-3.41306 -3.71543,10.45931 z"
     inkscape:randomized="0"
     inkscape:rounded="0"
     inkscape:flatsided="false"
     sodipodi:arg2="1.1139406"
     sodipodi:arg1="0.48562209"
     sodipodi:r2="8.3573208"
     sodipodi:r1="16.714642"
     sodipodi:cy="409.04706"
     sodipodi:cx="324.80463"
     sodipodi:sides="5"
     id="path4717"
     style="fill:#0353a4;fill-opacity:1;stroke:#0353a4;stroke-width:1.27048433;stroke-miterlimit:4;stroke-dasharray:none;stroke-opacity:1"
     sodipodi:type="star" /></g><g
   transform="translate(138.71936,-17.12585)"
   id="g4727" class='circle-star'><circle
     style="fill:#0353a4;fill-opacity:0;stroke:#0353a4;stroke-width:3.15968513;stroke-miterlimit:4;stroke-dasharray:none;stroke-opacity:1"
     id="circle4723"
     cx="323.84766"
     cy="409.8447"
     r="20.665857" /><path
     sodipodi:type="star"
     style="fill:#0353a4;fill-opacity:1;stroke:#0353a4;stroke-width:1.27048433;stroke-miterlimit:4;stroke-dasharray:none;stroke-opacity:1"
     id="path4725"
     sodipodi:sides="5"
     sodipodi:cx="324.80463"
     sodipodi:cy="409.04706"
     sodipodi:r1="16.714642"
     sodipodi:r2="8.3573208"
     sodipodi:arg1="0.48562209"
     sodipodi:arg2="1.1139406"
     inkscape:flatsided="false"
     inkscape:rounded="0"
     inkscape:randomized="0"
     d="m 339.5868,416.84876 -11.09552,-0.30147 -6.53857,8.96931 -3.14199,-10.64563 -10.55085,-3.44688 9.15367,-6.27788 0.0178,-11.09961 8.79927,6.76569 10.56184,-3.41306 -3.71543,10.45931 z"
     inkscape:transform-center-x="0.88129833"
     inkscape:transform-center-y="0.73453349" /></g><g
   id="g4733"
   class='circle-star'
   transform="translate(-10.275508,7.7066273)"><circle
     r="20.665857"
     cy="409.8447"
     cx="323.84766"
     id="circle4729"
     style="fill:#0353a4;fill-opacity:0;stroke:#0353a4;stroke-width:3.15968513;stroke-miterlimit:4;stroke-dasharray:none;stroke-opacity:1" /><path
     inkscape:transform-center-y="0.73453349"
     inkscape:transform-center-x="0.88129833"
     d="m 339.5868,416.84876 -11.09552,-0.30147 -6.53857,8.96931 -3.14199,-10.64563 -10.55085,-3.44688 9.15367,-6.27788 0.0178,-11.09961 8.79927,6.76569 10.56184,-3.41306 -3.71543,10.45931 z"
     inkscape:randomized="0"
     inkscape:rounded="0"
     inkscape:flatsided="false"
     sodipodi:arg2="1.1139406"
     sodipodi:arg1="0.48562209"
     sodipodi:r2="8.3573208"
     sodipodi:r1="16.714642"
     sodipodi:cy="409.04706"
     sodipodi:cx="324.80463"
     sodipodi:sides="5"
     id="path4731"
     style="fill:#0353a4;fill-opacity:1;stroke:#0353a4;stroke-width:1.27048433;stroke-miterlimit:4;stroke-dasharray:none;stroke-opacity:1"
     sodipodi:type="star" /></g><g
   id="g4739"
   class='circle-star'
   transform="translate(198.65983,303.12748)"><circle
     r="20.665857"
     cy="409.8447"
     cx="323.84766"
     id="circle4735"
     style="fill:#0353a4;fill-opacity:0;stroke:#0353a4;stroke-width:3.15968513;stroke-miterlimit:4;stroke-dasharray:none;stroke-opacity:1" /><path
     inkscape:transform-center-y="0.73453349"
     inkscape:transform-center-x="0.88129833"
     d="m 339.5868,416.84876 -11.09552,-0.30147 -6.53857,8.96931 -3.14199,-10.64563 -10.55085,-3.44688 9.15367,-6.27788 0.0178,-11.09961 8.79927,6.76569 10.56184,-3.41306 -3.71543,10.45931 z"
     inkscape:randomized="0"
     inkscape:rounded="0"
     inkscape:flatsided="false"
     sodipodi:arg2="1.1139406"
     sodipodi:arg1="0.48562209"
     sodipodi:r2="8.3573208"
     sodipodi:r1="16.714642"
     sodipodi:cy="409.04706"
     sodipodi:cx="324.80463"
     sodipodi:sides="5"
     id="path4737"
     style="fill:#0353a4;fill-opacity:1;stroke:#0353a4;stroke-width:1.27048433;stroke-miterlimit:4;stroke-dasharray:none;stroke-opacity:1"
     sodipodi:type="star" /></g><g
   transform="translate(-103.61136,-125.87498)"
   id="g4745"
   class='circle-star'><circle
     style="fill:#0353a4;fill-opacity:0;stroke:#0353a4;stroke-width:3.15968513;stroke-miterlimit:4;stroke-dasharray:none;stroke-opacity:1"
     id="circle4741"
     cx="323.84766"
     cy="409.8447"
     r="20.665857" /><path
     sodipodi:type="star"
     style="fill:#0353a4;fill-opacity:1;stroke:#0353a4;stroke-width:1.27048433;stroke-miterlimit:4;stroke-dasharray:none;stroke-opacity:1"
     id="path4743"
     sodipodi:sides="5"
     sodipodi:cx="324.80463"
     sodipodi:cy="409.04706"
     sodipodi:r1="16.714642"
     sodipodi:r2="8.3573208"
     sodipodi:arg1="0.48562209"
     sodipodi:arg2="1.1139406"
     inkscape:flatsided="false"
     inkscape:rounded="0"
     inkscape:randomized="0"
     d="m 339.5868,416.84876 -11.09552,-0.30147 -6.53857,8.96931 -3.14199,-10.64563 -10.55085,-3.44688 9.15367,-6.27788 0.0178,-11.09961 8.79927,6.76569 10.56184,-3.41306 -3.71543,10.45931 z"
     inkscape:transform-center-x="0.88129833"
     inkscape:transform-center-y="0.73453349" /></g><g
   id="g4751"
   class='circle-star'
   transform="translate(-36.820558,202.94127)"><circle
     r="20.665857"
     cy="409.8447"
     cx="323.84766"
     id="circle4747"
     style="fill:#0353a4;fill-opacity:0;stroke:#0353a4;stroke-width:3.15968513;stroke-miterlimit:4;stroke-dasharray:none;stroke-opacity:1" /><path
     inkscape:transform-center-y="0.73453349"
     inkscape:transform-center-x="0.88129833"
     d="m 339.5868,416.84876 -11.09552,-0.30147 -6.53857,8.96931 -3.14199,-10.64563 -10.55085,-3.44688 9.15367,-6.27788 0.0178,-11.09961 8.79927,6.76569 10.56184,-3.41306 -3.71543,10.45931 z"
     inkscape:randomized="0"
     inkscape:rounded="0"
     inkscape:flatsided="false"
     sodipodi:arg2="1.1139406"
     sodipodi:arg1="0.48562209"
     sodipodi:r2="8.3573208"
     sodipodi:r1="16.714642"
     sodipodi:cy="409.04706"
     sodipodi:cx="324.80463"
     sodipodi:sides="5"
     id="path4749"
     style="fill:#0353a4;fill-opacity:1;stroke:#0353a4;stroke-width:1.27048433;stroke-miterlimit:4;stroke-dasharray:none;stroke-opacity:1"
     sodipodi:type="star" /></g><g
   transform="translate(119.88094,148.13857)"
   class='circle-star'
   id="g4757"><circle
     style="fill:#0353a4;fill-opacity:0;stroke:#0353a4;stroke-width:3.15968513;stroke-miterlimit:4;stroke-dasharray:none;stroke-opacity:1"
     id="circle4753"
     cx="323.84766"
     cy="409.8447"
     r="20.665857" /><path
     sodipodi:type="star"
     style="fill:#0353a4;fill-opacity:1;stroke:#0353a4;stroke-width:1.27048433;stroke-miterlimit:4;stroke-dasharray:none;stroke-opacity:1"
     id="path4755"
     sodipodi:sides="5"
     sodipodi:cx="324.80463"
     sodipodi:cy="409.04706"
     sodipodi:r1="16.714642"
     sodipodi:r2="8.3573208"
     sodipodi:arg1="0.48562209"
     sodipodi:arg2="1.1139406"
     inkscape:flatsided="false"
     inkscape:rounded="0"
     inkscape:randomized="0"
     d="m 339.5868,416.84876 -11.09552,-0.30147 -6.53857,8.96931 -3.14199,-10.64563 -10.55085,-3.44688 9.15367,-6.27788 0.0178,-11.09961 8.79927,6.76569 10.56184,-3.41306 -3.71543,10.45931 z"
     inkscape:transform-center-x="0.88129833"
     inkscape:transform-center-y="0.73453349" /></g></svg>